#N canvas 0 23 1036 545 12;
#X text 130 382 Press & hold the SPACEBAR to trigger the note;
#X obj 83 40 cnv 15 450 60 empty empty empty 20 12 0 14 -233017 -66577
0;
#N canvas 495 80 773 350 guts 0;
#X obj 104 139 r \$1-note;
#X obj 104 186 line~;
#X obj 90 215 *~;
#X obj 56 294 throw~ \$1-outL;
#X obj 169 295 throw~ \$1-outR;
#X msg 104 162 \$1 25;
#N canvas 821 353 849 405 display 0;
#X obj 309 88 sel 0 1;
#X obj 309 64 > 0;
#X msg 419 183 color 1 0 22;
#X msg 517 182 color 1 13 22;
#X obj 310 38 r \$1-note;
#X obj 684 279 s \$0-rate_rec;
#X obj 398 33 tgl 15 0 empty empty empty 17 7 0 10 -262144 -1 -1 0
1;
#X obj 551 271 s \$0-depth_rec;
#X obj 54 60 moses 20, f 22;
#X msg 54 84 symbol Tremolo;
#X obj 97 168 s \$0-FXtypeDisp_rec;
#X msg 88 121 symbol Ring_Modulation;
#X floatatom 189 27 5 0 0 0 - - -;
#X obj 54 36 r \$0-rate_snd;
#X msg 262 235 color 1;
#X msg 360 234 color 13;
#X obj 286 272 s \$0-fxCanv_rec;
#X connect 0 0 2 0;
#X connect 0 0 14 0;
#X connect 0 1 3 0;
#X connect 0 1 15 0;
#X connect 1 0 0 0;
#X connect 2 0 5 0;
#X connect 2 0 7 0;
#X connect 3 0 5 0;
#X connect 3 0 7 0;
#X connect 4 0 1 0;
#X connect 6 0 1 0;
#X connect 8 0 9 0;
#X connect 8 1 11 0;
#X connect 9 0 10 0;
#X connect 11 0 10 0;
#X connect 13 0 8 0;
#X connect 13 0 12 0;
#X connect 14 0 16 0;
#X connect 15 0 16 0;
#X restore 484 60 pd display;
#N canvas 970 193 450 300 load 0;
#X obj 249 20 r reset;
#X obj 192 71 s \$0-rate_rec;
#X obj 301 69 s \$0-depth_rec;
#X msg 301 45 0.8;
#X msg 192 47 5;
#X connect 0 0 4 0;
#X connect 0 0 3 0;
#X connect 3 0 2 0;
#X connect 4 0 1 0;
#X restore 322 59 pd load;
#N canvas 199 23 961 805 sampler 0;
#X obj 248 188 r \$0-rate_snd;
#X obj 357 188 r \$0-depth_snd;
#X msg 357 212 \$1 5;
#X obj 357 236 line~;
#X obj 72 423 outlet~;
#X msg 248 212 \$1 5;
#X obj 248 236 line~;
#X obj 248 260 osc~;
#X floatatom 300 215 5 0 0 0 - - -;
#X obj 248 334 *~, f 16;
#N canvas 0 23 450 300 sampPlayer 0;
#X obj 29 38 r \$0-pbRate;
#X obj 29 62 phasor~;
#X obj 29 86 *~, f 12;
#X obj 29 110 +~ 1;
#X obj 29 134 tabread4~ \$0-sample;
#X obj 124 54 r \$0-sampSize;
#X obj 29 158 outlet~;
#N canvas 0 23 785 581 sampLoad 0;
#X obj 305 147 openpanel;
#X obj 305 126 bng 15 250 50 0 empty empty empty 17 7 0 10 -262144
-1 -1;
#X obj 305 169 pack s \$0;
#X msg 305 193 read -resize \$1 \$2-sample;
#X obj 305 217 soundfiler;
#X obj 465 49 loadbang;
#X obj 536 48 r reset;
#X msg 533 116 16;
#X obj 533 140 s \$0-bd_rec;
#X obj 489 87 bng 15 250 50 0 empty empty empty 17 7 0 10 -262144 -1
-1;
#X obj 301 483 array define \$0-sample;
#X floatatom 305 241 10 0 0 0 - - -;
#X obj 305 264 / 44100;
#X obj 305 288 t b f;
#X msg 305 312 1;
#X obj 305 336 /;
#X floatatom 305 360 5 0 0 0 - - -;
#X obj 305 383 s \$0-pbRate;
#X obj 156 266 - 2;
#X obj 156 290 s \$0-sampSize;
#X msg 424 132 AGTR.aif;
#X connect 0 0 2 0;
#X connect 1 0 0 0;
#X connect 2 0 3 0;
#X connect 3 0 4 0;
#X connect 4 0 11 0;
#X connect 5 0 9 0;
#X connect 6 0 9 0;
#X connect 7 0 8 0;
#X connect 9 0 7 0;
#X connect 9 0 20 0;
#X connect 11 0 12 0;
#X connect 11 0 18 0;
#X connect 12 0 13 0;
#X connect 13 0 14 0;
#X connect 13 1 15 1;
#X connect 14 0 15 0;
#X connect 15 0 16 0;
#X connect 16 0 17 0;
#X connect 18 0 19 0;
#X connect 20 0 2 0;
#X restore 272 29 pd sampLoad;
#X connect 0 0 1 0;
#X connect 1 0 2 0;
#X connect 2 0 3 0;
#X connect 3 0 4 0;
#X connect 4 0 6 0;
#X connect 5 0 2 1;
#X restore 78 16 pd sampPlayer;
#X obj 72 383 *~, f 18;
#X obj 248 284 *~ 0.5;
#X obj 248 308 +~ 0.5;
#X obj 195 334 sig~ 1;
#X obj 195 358 -~, f 8;
#X obj 765 200 r \$0-depth_snd;
#X msg 765 224 \$1 5;
#X obj 765 248 line~;
#X obj 480 435 outlet~;
#X floatatom 708 227 5 0 0 0 - - -;
#X obj 656 346 *~, f 16;
#X obj 480 395 *~, f 18;
#X obj 656 296 *~ 0.5;
#X obj 656 320 +~ 0.5;
#X obj 603 346 sig~ 1;
#X obj 603 370 -~, f 8;
#X obj 656 272 *~ -1;
#X connect 0 0 5 0;
#X connect 0 0 8 0;
#X connect 1 0 2 0;
#X connect 2 0 3 0;
#X connect 3 0 9 1;
#X connect 5 0 6 0;
#X connect 6 0 7 0;
#X connect 7 0 12 0;
#X connect 7 0 27 0;
#X connect 9 0 15 1;
#X connect 10 0 11 0;
#X connect 10 0 22 0;
#X connect 11 0 4 0;
#X connect 12 0 13 0;
#X connect 13 0 9 0;
#X connect 14 0 15 0;
#X connect 15 0 11 1;
#X connect 16 0 17 0;
#X connect 17 0 18 0;
#X connect 18 0 21 1;
#X connect 21 0 26 1;
#X connect 22 0 19 0;
#X connect 23 0 24 0;
#X connect 24 0 21 0;
#X connect 25 0 26 0;
#X connect 26 0 22 1;
#X connect 27 0 23 0;
#X restore 77 17 pd sampler;
#X obj 90 108 *~ 0.7;
#X obj 226 135 r \$1-note;
#X obj 226 182 line~;
#X obj 212 211 *~;
#X msg 226 158 \$1 25;
#X obj 209 111 *~ 0.7;
#X connect 0 0 5 0;
#X connect 1 0 2 1;
#X connect 2 0 3 0;
#X connect 5 0 1 0;
#X connect 8 0 9 0;
#X connect 8 1 14 0;
#X connect 9 0 2 0;
#X connect 10 0 13 0;
#X connect 11 0 12 1;
#X connect 12 0 4 0;
#X connect 13 0 11 0;
#X connect 14 0 12 0;
#X restore 723 58 pd guts;
#X obj 82 173 cnv 15 450 160 empty empty empty 20 12 0 14 -262130 -66577
0;
#X obj 217 263 hsl 128 15 0.002 20 1 0 \$0-rate_snd \$0-rate_rec rate
-2 -8 0 10 -166441 -262144 -1 10788 1;
#X obj 217 296 hsl 128 15 0 1 0 0 \$0-depth_snd \$0-depth_rec depth
-2 -8 0 10 -166441 -262144 -1 10160 1;
#X text 98 45 In auto-panning \, a pair of VCA’s are used and their
CV input is fed by two versions of the same LFO signal that are opposite
in phase.;
#X text 99 173 This example uses the previous tremolo example \, but
inverts the phase of the LFO controlling the volume on the right hand
channel from that controlling the volume of the left channel;
#X coords 0 -1 1 1 610 390 2 10 10;
