#N canvas 429 115 1036 545 12;
#N canvas 507 167 773 350 guts 0;
#X obj 77 159 throw~ \$1-outL;
#X obj 190 160 throw~ \$1-outR;
#X obj 481 119 sel 0 1;
#X obj 481 95 > 0;
#X msg 444 160 color 1 0 22;
#X msg 550 163 color 1 13 22;
#X obj 482 69 r \$1-note;
#X obj 672 167 r reset;
#X msg 672 190 0;
#X obj 503 261 s \$0-drywet_rec;
#X obj 562 68 tgl 15 0 empty empty empty 17 7 0 10 -262144 -1 -1 0
1;
#N canvas 270 73 1010 701 sampler 0;
#X obj 729 237 openpanel;
#X obj 729 216 bng 15 250 50 0 empty empty empty 17 7 0 10 -262144
-1 -1;
#X obj 729 259 pack s \$0;
#X msg 729 283 read -resize \$1 \$2-sample;
#X obj 729 303 soundfiler;
#X obj 763 104 array define \$0-sample;
#X msg 793 202 snare.wav;
#X obj 793 154 loadbang;
#X obj 862 154 r reset;
#X obj 255 141 tabplay~ \$0-sample;
#X obj 255 117 metro 1000;
#X obj 87 189 t f f, f 12;
#X obj 87 213 t b f;
#X msg 87 237 1;
#X obj 87 261 -;
#X floatatom 87 285 5 0 0 0 - - -;
#X floatatom 147 287 5 0 0 0 - - -;
#X obj 399 447 *~;
#X obj 260 384 *~;
#X obj 88 158 r \$0-drywet_snd;
#X msg 526 210 \$1 5;
#X obj 526 234 line~;
#X obj 255 93 inlet;
#X obj 304 518 outlet~;
#X obj 392 524 outlet~;
#X obj 404 149 r \$0-fb_snd;
#X msg 404 173 \$1 5;
#X obj 404 197 line~;
#X obj 404 221 *~;
#X obj 310 310 delwrite~ \$0-delL 950;
#X obj 526 257 vd~ \$0-delL;
#X obj 532 320 delwrite~ \$0-delR 950;
#X msg 552 386 \$1 5;
#X obj 552 410 line~;
#X obj 552 362 r \$0-delayR_snd;
#X obj 526 186 r \$0-delayL_snd;
#X obj 552 433 vd~ \$0-delR;
#X obj 469 446 *~;
#X connect 0 0 2 0;
#X connect 1 0 0 0;
#X connect 2 0 3 0;
#X connect 3 0 4 0;
#X connect 6 0 2 0;
#X connect 7 0 6 0;
#X connect 8 0 6 0;
#X connect 9 0 18 0;
#X connect 9 0 29 0;
#X connect 10 0 9 0;
#X connect 11 0 12 0;
#X connect 11 1 16 0;
#X connect 12 0 13 0;
#X connect 12 1 14 1;
#X connect 13 0 14 0;
#X connect 14 0 15 0;
#X connect 15 0 18 1;
#X connect 16 0 17 1;
#X connect 16 0 37 1;
#X connect 17 0 23 0;
#X connect 18 0 23 0;
#X connect 18 0 24 0;
#X connect 19 0 11 0;
#X connect 20 0 21 0;
#X connect 21 0 30 0;
#X connect 22 0 10 0;
#X connect 25 0 26 0;
#X connect 26 0 27 0;
#X connect 27 0 28 0;
#X connect 28 0 29 0;
#X connect 30 0 17 0;
#X connect 30 0 31 0;
#X connect 32 0 33 0;
#X connect 33 0 36 0;
#X connect 34 0 32 0;
#X connect 35 0 20 0;
#X connect 36 0 28 1;
#X connect 36 0 37 0;
#X connect 37 0 24 0;
#X restore 82 128 pd sampler;
#X obj 82 63 > 0;
#X obj 83 37 r \$1-note;
#X obj 108 98 tgl 15 0 empty empty empty 17 7 0 10 -262144 -1 -1 0
1;
#N canvas 481 87 754 300 load 0;
#X obj 219 6 r reset;
#X obj 286 136 s \$0-drywet_rec;
#X msg 200 39 250;
#X msg 275 41 0.2;
#X obj 405 135 s \$0-fb_rec;
#X msg 374 42 0.3;
#X obj 161 137 s \$0-delayL_rec;
#X obj 47 137 s \$0-delayR_rec;
#X connect 0 0 2 0;
#X connect 0 0 3 0;
#X connect 0 0 5 0;
#X connect 2 0 6 0;
#X connect 2 0 7 0;
#X connect 3 0 1 0;
#X connect 5 0 4 0;
#X restore 320 25 pd load;
#X obj 621 264 s \$0-fb_rec;
#X obj 378 262 s \$0-delayL_rec;
#X obj 384 289 s \$0-delayR_rec;
#X connect 2 0 4 0;
#X connect 2 1 5 0;
#X connect 3 0 2 0;
#X connect 4 0 9 0;
#X connect 4 0 16 0;
#X connect 4 0 17 0;
#X connect 4 0 18 0;
#X connect 5 0 9 0;
#X connect 5 0 16 0;
#X connect 5 0 17 0;
#X connect 5 0 18 0;
#X connect 6 0 3 0;
#X connect 7 0 8 0;
#X connect 10 0 3 0;
#X connect 11 0 0 0;
#X connect 11 1 1 0;
#X connect 12 0 11 0;
#X connect 12 0 14 0;
#X connect 13 0 12 0;
#X restore 724 34 pd guts;
#X obj 94 46 cnv 15 450 60 empty empty empty 20 12 0 14 -233017 -66577
0;
#X obj 30 133 cnv 15 580 200 empty empty empty 20 12 0 14 -261682 -66577
0;
#X obj 57 184 hsl 128 15 0 1 0 0 \$0-drywet_snd \$0-drywet_rec Dry/Wet
-2 -8 0 10 -166441 -262144 -1 2540 1;
#X obj 57 219 hsl 100 15 0 500 0 0 \$0-delayL_snd \$0-delayL_rec Delay_Time_Left
-2 -8 0 10 -166441 -262144 -1 4950 1;
#X text 195 181 Mix of original (dry) signal to effect (wet);
#X text 136 378 Press & hold the SPACEBAR to trigger the sound;
#X obj 57 289 hsl 128 15 0 1 0 0 \$0-fb_snd \$0-fb_rec Feedback -2
-8 0 10 -166441 -262144 -1 3810 1;
#X text 118 134 This is a simple example designed to demonstrate the
basic parameters of digital delay plug-ins;
#X text 191 283 Level (as a perecentage) of each repetition that is
recirculated (i.e. fed-back) into the delay line;
#X obj 57 254 hsl 100 15 0 500 0 0 \$0-delayR_snd \$0-delayR_rec Delay_Time_Right
-2 -8 0 10 -166441 -262144 -1 4950 1;
#X text 105 57 Ping-Pong Delays pan back and forth between left and
right channels;
#X text 167 231 You can set different delay times for the left and
right channel;
#X coords 0 -1 1 1 610 390 2 10 10;
