#N canvas 0 23 1036 545 12;
#N canvas 507 167 773 350 guts 0;
#X obj 77 159 throw~ \$1-outL;
#X obj 190 160 throw~ \$1-outR;
#X obj 481 119 sel 0 1;
#X obj 481 95 > 0;
#X msg 444 160 color 1 0 22;
#X msg 550 163 color 1 13 22;
#X obj 482 69 r \$1-note;
#X obj 672 167 r reset;
#X msg 672 190 0;
#X obj 503 261 s \$0-drywet_rec;
#X obj 562 68 tgl 15 0 empty empty empty 17 7 0 10 -262144 -1 -1 0
1;
#N canvas 270 73 1010 701 sampler 0;
#X obj 729 237 openpanel;
#X obj 729 216 bng 15 250 50 0 empty empty empty 17 7 0 10 -262144
-1 -1;
#X obj 729 259 pack s \$0;
#X msg 729 283 read -resize \$1 \$2-sample;
#X obj 729 303 soundfiler;
#X obj 763 104 array define \$0-sample;
#X msg 793 202 snare.wav;
#X obj 793 154 loadbang;
#X obj 862 154 r reset;
#X obj 255 141 tabplay~ \$0-sample;
#X obj 255 117 metro 1000;
#X obj 87 189 t f f, f 12;
#X obj 87 213 t b f;
#X msg 87 237 1;
#X obj 87 261 -;
#X floatatom 87 285 5 0 0 0 - - -;
#X floatatom 147 287 5 0 0 0 - - -;
#X obj 443 419 *~;
#X obj 260 384 *~;
#X obj 88 158 r \$0-drywet_snd;
#X msg 526 210 \$1 5;
#X obj 526 234 line~;
#X obj 255 93 inlet;
#X obj 304 518 outlet~;
#X obj 392 524 outlet~;
#X obj 526 257 vd~ \$0-del;
#X obj 526 186 r \$0-delay_snd;
#X obj 286 271 delwrite~ \$0-del 950;
#X obj 404 149 r \$0-fb_snd;
#X msg 404 173 \$1 5;
#X obj 404 197 line~;
#X obj 404 221 *~;
#X connect 0 0 2 0;
#X connect 1 0 0 0;
#X connect 2 0 3 0;
#X connect 3 0 4 0;
#X connect 6 0 2 0;
#X connect 7 0 6 0;
#X connect 8 0 6 0;
#X connect 9 0 18 0;
#X connect 9 0 27 0;
#X connect 10 0 9 0;
#X connect 11 0 12 0;
#X connect 11 1 16 0;
#X connect 12 0 13 0;
#X connect 12 1 14 1;
#X connect 13 0 14 0;
#X connect 14 0 15 0;
#X connect 15 0 18 1;
#X connect 16 0 17 1;
#X connect 17 0 23 0;
#X connect 17 0 24 0;
#X connect 18 0 23 0;
#X connect 18 0 24 0;
#X connect 19 0 11 0;
#X connect 20 0 21 0;
#X connect 21 0 25 0;
#X connect 22 0 10 0;
#X connect 25 0 17 0;
#X connect 25 0 31 1;
#X connect 26 0 20 0;
#X connect 28 0 29 0;
#X connect 29 0 30 0;
#X connect 30 0 31 0;
#X connect 31 0 27 0;
#X restore 82 128 pd sampler;
#X obj 82 63 > 0;
#X obj 83 37 r \$1-note;
#X obj 108 98 tgl 15 0 empty empty empty 17 7 0 10 -262144 -1 -1 0
1;
#N canvas 481 87 754 300 load 0;
#X obj 219 6 r reset;
#X obj 286 136 s \$0-drywet_rec;
#X obj 161 137 s \$0-delay_rec;
#X msg 200 39 250;
#X msg 275 41 0.2;
#X obj 405 135 s \$0-fb_rec;
#X msg 374 42 0.3;
#X connect 0 0 3 0;
#X connect 0 0 4 0;
#X connect 0 0 6 0;
#X connect 3 0 2 0;
#X connect 4 0 1 0;
#X connect 6 0 5 0;
#X restore 320 25 pd load;
#X obj 378 262 s \$0-delay_rec;
#X obj 621 264 s \$0-fb_rec;
#X connect 2 0 4 0;
#X connect 2 1 5 0;
#X connect 3 0 2 0;
#X connect 4 0 9 0;
#X connect 4 0 16 0;
#X connect 4 0 17 0;
#X connect 5 0 9 0;
#X connect 5 0 16 0;
#X connect 5 0 17 0;
#X connect 6 0 3 0;
#X connect 7 0 8 0;
#X connect 10 0 3 0;
#X connect 11 0 0 0;
#X connect 11 1 1 0;
#X connect 12 0 11 0;
#X connect 12 0 14 0;
#X connect 13 0 12 0;
#X restore 724 34 pd guts;
#X obj 94 15 cnv 15 450 110 empty empty empty 20 12 0 14 -233017 -66577
0;
#X obj 27 179 cnv 15 580 140 empty empty empty 20 12 0 14 -261682 -66577
0;
#X obj 54 230 hsl 128 15 0 1 0 0 \$0-drywet_snd \$0-drywet_rec Dry/Wet
-2 -8 0 10 -166441 -262144 -1 2540 1;
#X obj 53 265 hsl 128 15 0 950 0 0 \$0-delay_snd \$0-delay_rec Delay_Time
-2 -8 0 10 -166441 -262144 -1 3342 1;
#X text 192 227 Mix of original (dry) signal to effect (wet);
#X text 136 378 Press & hold the SPACEBAR to trigger the sound;
#X text 191 260 The time between each repetition;
#X obj 53 298 hsl 128 15 0 1 0 0 \$0-fb_snd \$0-fb_rec Feedback -2
-8 0 10 -166441 -262144 -1 3810 1;
#X text 115 180 This is a simple example designed to demonstrate the
basic parameters of digital delay plug-ins;
#X text 188 286 Level (as a perecentage) of each repetition that is
recirculated (i.e. fed-back) into the delay line;
#X text 105 15 Delay effects were originally designed to simulate very
large outdoor (or imaginary) environments (think of what happens if
you shout in a canyon).;
#X text 105 80 Unlike reverb \, when using delay \, each repetition
tends to be individually deiscernable.;
#X coords 0 -1 1 1 610 390 2 10 10;
