#N canvas 0 23 1036 545 12;
#N canvas 507 167 773 522 guts 0;
#X obj 77 159 throw~ \$1-outL;
#X obj 190 160 throw~ \$1-outR;
#X obj 481 119 sel 0 1;
#X obj 481 95 > 0;
#X msg 444 160 color 1 0 22;
#X msg 550 163 color 1 13 22;
#X obj 482 69 r \$1-note;
#X obj 672 167 r reset;
#X msg 672 190 0;
#X obj 503 261 s \$0-drywet_rec;
#X obj 562 68 tgl 15 0 empty empty empty 17 7 0 10 -262144 -1 -1 0
1;
#N canvas 270 73 1010 701 sampler 0;
#X obj 729 168 openpanel;
#X obj 729 147 bng 15 250 50 0 empty empty empty 17 7 0 10 -262144
-1 -1;
#X obj 729 190 pack s \$0;
#X msg 729 214 read -resize \$1 \$2-sample;
#X obj 729 234 soundfiler;
#X obj 763 35 array define \$0-sample;
#X msg 793 133 snare.wav;
#X obj 793 85 loadbang;
#X obj 862 85 r reset;
#X obj 255 141 tabplay~ \$0-sample;
#X obj 87 189 t f f, f 12;
#X obj 87 213 t b f;
#X msg 87 237 1;
#X obj 87 261 -;
#X floatatom 87 285 5 0 0 0 - - -;
#X floatatom 147 287 5 0 0 0 - - -;
#X obj 294 582 *~, f 9;
#X obj 159 414 *~;
#X obj 88 158 r \$0-drywet_snd;
#X msg 450 214 \$1 5;
#X obj 450 238 line~;
#X obj 255 93 inlet;
#X obj 210 632 outlet~;
#X obj 298 632 outlet~;
#X obj 450 261 vd~ \$0-del;
#X obj 450 190 r \$0-delay1_snd;
#X obj 450 285 *~, f 14;
#X msg 566 215 \$1 5;
#X obj 566 239 line~;
#X obj 566 191 r \$0-tap1_snd;
#X floatatom 615 217 5 0 0 0 - - -;
#X msg 468 420 \$1 5;
#X obj 468 444 line~;
#X obj 468 467 vd~ \$0-del;
#X obj 468 313 r \$0-delay1_snd;
#X obj 468 491 *~, f 14;
#X msg 584 421 \$1 5;
#X obj 584 445 line~;
#X floatatom 633 340 5 0 0 0 - - -;
#X obj 585 397 r \$0-tap2_snd;
#X obj 496 340 r \$0-delay2_snd;
#X obj 468 396 +;
#X obj 496 364 t b f;
#X msg 745 462 \$1 5;
#X obj 745 486 line~;
#X obj 745 509 vd~ \$0-del;
#X obj 746 289 r \$0-delay1_snd;
#X obj 745 533 *~, f 14;
#X msg 861 463 \$1 5;
#X obj 861 487 line~;
#X floatatom 910 382 5 0 0 0 - - -;
#X obj 774 316 r \$0-delay2_snd;
#X obj 746 372 +;
#X obj 774 340 t b f;
#X obj 765 425 +;
#X obj 793 393 t b f;
#X obj 793 369 r \$0-delay3_snd;
#X obj 862 439 r \$0-tap3_snd;
#X obj 268 175 delwrite~ \$0-del 2000;
#X obj 255 117 metro 2000;
#X connect 0 0 2 0;
#X connect 1 0 0 0;
#X connect 2 0 3 0;
#X connect 3 0 4 0;
#X connect 6 0 2 0;
#X connect 7 0 6 0;
#X connect 8 0 6 0;
#X connect 9 0 17 0;
#X connect 9 0 58 0;
#X connect 10 0 11 0;
#X connect 10 1 15 0;
#X connect 11 0 12 0;
#X connect 11 1 13 1;
#X connect 12 0 13 0;
#X connect 13 0 14 0;
#X connect 14 0 17 1;
#X connect 15 0 16 1;
#X connect 16 0 22 0;
#X connect 16 0 23 0;
#X connect 17 0 22 0;
#X connect 17 0 23 0;
#X connect 18 0 10 0;
#X connect 19 0 20 0;
#X connect 20 0 24 0;
#X connect 21 0 59 0;
#X connect 24 0 26 0;
#X connect 25 0 19 0;
#X connect 26 0 16 0;
#X connect 27 0 28 0;
#X connect 28 0 26 1;
#X connect 29 0 27 0;
#X connect 29 0 30 0;
#X connect 31 0 32 0;
#X connect 32 0 33 0;
#X connect 33 0 35 0;
#X connect 34 0 41 0;
#X connect 35 0 16 0;
#X connect 36 0 37 0;
#X connect 37 0 35 1;
#X connect 39 0 36 0;
#X connect 39 0 38 0;
#X connect 40 0 42 0;
#X connect 41 0 31 0;
#X connect 42 0 41 0;
#X connect 42 1 41 1;
#X connect 43 0 44 0;
#X connect 44 0 45 0;
#X connect 45 0 47 0;
#X connect 46 0 52 0;
#X connect 47 0 16 0;
#X connect 48 0 49 0;
#X connect 49 0 47 1;
#X connect 51 0 53 0;
#X connect 52 0 54 0;
#X connect 53 0 52 0;
#X connect 53 1 52 1;
#X connect 54 0 43 0;
#X connect 55 0 54 0;
#X connect 55 1 54 1;
#X connect 56 0 55 0;
#X connect 57 0 48 0;
#X connect 57 0 50 0;
#X connect 59 0 9 0;
#X restore 82 128 pd sampler;
#X obj 82 63 > 0;
#X obj 83 37 r \$1-note;
#X obj 108 98 tgl 15 0 empty empty empty 17 7 0 10 -262144 -1 -1 0
1;
#N canvas 481 87 754 300 load 0;
#X obj 219 6 r reset;
#X obj 40 106 s \$0-drywet_rec;
#X msg 29 11 0.2;
#X obj 28 205 s \$0-delay1_rec;
#X obj 148 210 s \$0-tap1_rec;
#X obj 286 197 s \$0-delay2_rec;
#X obj 406 202 s \$0-tap2_rec;
#X obj 517 203 s \$0-delay3_rec;
#X obj 637 208 s \$0-tap3_rec;
#X msg 633 150 0.3;
#X msg 219 30 200;
#X msg 270 31 150;
#X msg 359 40 100;
#X connect 0 0 2 0;
#X connect 0 0 9 0;
#X connect 0 0 10 0;
#X connect 0 0 11 0;
#X connect 0 0 12 0;
#X connect 2 0 1 0;
#X connect 9 0 8 0;
#X connect 9 0 6 0;
#X connect 9 0 4 0;
#X connect 10 0 3 0;
#X connect 11 0 5 0;
#X connect 12 0 7 0;
#X restore 320 25 pd load;
#X obj 621 264 s \$0-fb_rec;
#X obj 225 263 s \$0-delay1_rec;
#X obj 345 268 s \$0-tap1_rec;
#X obj 235 311 s \$0-delay2_rec;
#X obj 355 316 s \$0-tap2_rec;
#X obj 242 366 s \$0-delay3_rec;
#X obj 362 371 s \$0-tap3_rec;
#X connect 2 0 4 0;
#X connect 2 1 5 0;
#X connect 3 0 2 0;
#X connect 4 0 9 0;
#X connect 4 0 16 0;
#X connect 4 0 17 0;
#X connect 4 0 18 0;
#X connect 4 0 20 0;
#X connect 4 0 19 0;
#X connect 4 0 22 0;
#X connect 4 0 21 0;
#X connect 5 0 9 0;
#X connect 5 0 16 0;
#X connect 5 0 17 0;
#X connect 5 0 18 0;
#X connect 5 0 20 0;
#X connect 5 0 19 0;
#X connect 5 0 22 0;
#X connect 5 0 21 0;
#X connect 6 0 3 0;
#X connect 7 0 8 0;
#X connect 10 0 3 0;
#X connect 11 0 0 0;
#X connect 11 1 1 0;
#X connect 12 0 11 0;
#X connect 12 0 14 0;
#X connect 13 0 12 0;
#X restore 724 34 pd guts;
#X obj 94 15 cnv 15 450 60 empty empty empty 20 12 0 14 -233017 -66577
0;
#X obj 26 87 cnv 15 580 290 empty empty empty 20 12 0 14 -261682 -66577
0;
#X obj 52 183 hsl 128 15 0 1 0 0 \$0-drywet_snd \$0-drywet_rec Dry/Wet
-2 -8 0 10 -166441 -262144 -1 2540 1;
#X obj 51 217 hsl 128 15 0 500 0 0 \$0-delay1_snd \$0-delay1_rec Delay_Time-Tap1
-2 -8 0 10 -166441 -262144 -1 5080 1;
#X text 190 180 Mix of original (dry) signal to effect (wet);
#X text 132 382 Press & hold the SPACEBAR to trigger the sound;
#X text 189 213 The time between original and repetition 1;
#X obj 51 273 hsl 128 15 0 500 0 0 \$0-delay2_snd \$0-delay2_rec Delay_Time-Tap2
-2 -8 0 10 -166441 -262144 -1 3810 1;
#X text 102 95 This is a simple example designed to demonstrate the
basic parameters of digital multitap delay plug-ins;
#X text 189 271 The time between repetition 1 and repetition 2;
#X obj 51 328 hsl 128 15 0 500 0 0 \$0-delay3_snd \$0-delay3_rec Delay_Time-Tap3
-2 -8 0 10 -166441 -262144 -1 2540 1;
#X text 189 329 The time between repetition 2 and repetition 3;
#X obj 51 249 hsl 128 8 0 1 0 0 \$0-tap1_snd \$0-tap1_rec tap1_level
-2 -8 0 10 -166441 -262144 -1 3810 1;
#X text 189 242 Level of the first repetition;
#X obj 51 304 hsl 128 8 0 1 0 0 \$0-tap2_snd \$0-tap2_rec tap2_level
-2 -8 0 10 -166441 -262144 -1 3810 1;
#X text 189 300 Level of the second repetition;
#X obj 51 359 hsl 128 8 0 1 0 0 \$0-tap3_snd \$0-tap3_rec tap3_level
-2 -8 0 10 -166441 -262144 -1 3810 1;
#X text 189 358 Level of the second repetition;
#X text 105 24 Multitap delays enable you to create rhythmic delay
patterns by controlling the delaytime and level of different repeats
separately;
#X text 101 126 In this example you have control of 3 different repetitions
(i.e. 'taps');
#X coords 0 -1 1 1 610 390 2 10 10;
