#N canvas 731 443 1036 545 12;
#N canvas 830 295 738 686 soundSource 0;
#X obj 76 88 noise~;
#X text 431 49 FC= sqrt(FL∗FH);
#X obj 48 18 r \$0-source_snd;
#X obj 48 42 t f f;
#X obj 125 90 == 1;
#X obj 138 144 *~;
#X obj 62 150 == 0;
#X obj 64 255 vline~;
#X obj 42 302 *~;
#X obj 30 196 *~ 1;
#X msg 64 231 1 10 \, 0.1 100 10 \, 0 50 200;
#X obj 64 207 metro 500;
#X obj 542 488 r \$1-note;
#X obj 542 535 line~;
#X obj 317 535 *~;
#X obj 283 614 throw~ \$1-outL;
#X obj 396 615 throw~ \$1-outR;
#X msg 542 511 \$1 25;
#X obj 318 509 catch~ \$0-postFilter;
#X obj 137 368 send~ \$0-source;
#X connect 0 0 5 0;
#X connect 0 0 9 0;
#X connect 2 0 3 0;
#X connect 3 0 6 0;
#X connect 3 1 4 0;
#X connect 4 0 5 1;
#X connect 5 0 19 0;
#X connect 6 0 9 1;
#X connect 6 0 11 0;
#X connect 7 0 8 1;
#X connect 8 0 19 0;
#X connect 9 0 8 0;
#X connect 10 0 7 0;
#X connect 11 0 10 0;
#X connect 12 0 17 0;
#X connect 13 0 14 1;
#X connect 14 0 15 0;
#X connect 14 0 16 0;
#X connect 17 0 13 0;
#X connect 18 0 14 0;
#X restore 723 58 pd soundSource;
#X obj 536 30 vradio 15 1 1 2 \$0-source_snd \$0-source_rec Sound_Source
0 -8 0 10 -166441 -262144 -1 0;
#X text 552 45 noise;
#X text 552 26 pulse;
#X obj 18 20 vradio 15 1 1 5 \$0-filterType_snd \$0-filterType_rec
empty 0 -8 0 10 -166441 -262144 -1 0;
#N canvas 46 23 1227 539 display_logic 0;
#X obj 44 334 sel 0 1 2 3 4 5 6 7 8, f 84;
#X msg 66 364 0 20;
#X msg 106 364 20 40;
#X msg 152 364 40 125;
#X msg 206 364 125 315;
#X obj 201 451 unpack;
#X obj 199 494 s \$0-Fl_rec;
#X obj 304 496 s \$0-Fh_rec;
#X msg 265 364 315 2000;
#X msg 324 364 2000 4000;
#X msg 391 365 4000 10000;
#X msg 467 365 10000 20000;
#X msg 547 366 20000 100000;
#X msg 559 146 0;
#X obj 454 181 pack f f;
#X msg 454 148 1;
#X obj 470 113 t b f b;
#X obj 271 6 r reset;
#X msg 198 36 0;
#X obj 236 97 s \$0-source_rec;
#X obj 790 333 sel 0 1;
#X obj 790 309 > 0;
#X msg 753 374 color 1 0 22;
#X msg 851 373 color 1 13 22;
#X obj 791 283 r \$1-note;
#X obj 966 377 r reset;
#X obj 971 486 s \$0-source_rec;
#X obj 925 271 tgl 15 0 empty empty empty 17 7 0 10 -262144 -1 -1 0
1;
#X obj 503 148 * 500;
#X obj 463 83 r \$0-filterType_snd;
#X obj 1093 485 s \$0-filterType_rec;
#X obj 91 92 s \$0-filterType_rec;
#X obj 91 266 r \$0-filterType_snd;
#X obj 454 233 s pd-\$0-pass/cut_filters;
#X msg 271 30 1000;
#X obj 271 54 s \$0-cutoff_rec;
#X msg 391 29 1;
#X obj 390 53 s \$0-Q_rec;
#X obj 765 490 s \$0-cutoff_rec;
#X obj 886 493 s \$0-Q_rec;
#X msg 454 206 donecanvasdialog 1 -1 \$1 0 -1 1 1 450 250 \$2 100 \,
dirty 0;
#X obj 633 470 s \$0-order_rec;
#X connect 0 0 1 0;
#X connect 0 1 2 0;
#X connect 0 2 3 0;
#X connect 0 3 4 0;
#X connect 0 4 8 0;
#X connect 0 5 9 0;
#X connect 0 6 10 0;
#X connect 0 7 11 0;
#X connect 0 8 12 0;
#X connect 1 0 5 0;
#X connect 2 0 5 0;
#X connect 3 0 5 0;
#X connect 4 0 5 0;
#X connect 5 0 6 0;
#X connect 5 1 7 0;
#X connect 8 0 5 0;
#X connect 9 0 5 0;
#X connect 10 0 5 0;
#X connect 11 0 5 0;
#X connect 12 0 5 0;
#X connect 13 0 14 0;
#X connect 14 0 40 0;
#X connect 15 0 14 0;
#X connect 16 0 15 0;
#X connect 16 1 28 0;
#X connect 16 2 13 0;
#X connect 17 0 18 0;
#X connect 17 0 34 0;
#X connect 17 0 36 0;
#X connect 18 0 19 0;
#X connect 18 0 31 0;
#X connect 20 0 22 0;
#X connect 20 1 23 0;
#X connect 21 0 20 0;
#X connect 22 0 30 0;
#X connect 22 0 26 0;
#X connect 22 0 38 0;
#X connect 22 0 39 0;
#X connect 22 0 41 0;
#X connect 23 0 30 0;
#X connect 23 0 26 0;
#X connect 23 0 38 0;
#X connect 23 0 39 0;
#X connect 23 0 41 0;
#X connect 24 0 21 0;
#X connect 25 0 30 0;
#X connect 25 0 26 0;
#X connect 25 0 38 0;
#X connect 25 0 39 0;
#X connect 25 0 41 0;
#X connect 27 0 21 0;
#X connect 28 0 14 1;
#X connect 29 0 16 0;
#X connect 32 0 0 0;
#X connect 34 0 35 0;
#X connect 36 0 37 0;
#X connect 40 0 33 0;
#X coords 0 539 1 538 400 200 0;
#X restore 757 166 pd display_logic;
#X text 174 376 Press & hold the SPACEBAR to trigger the sound source
;
#X text 38 35 Low Pass/High Cut;
#X text 38 52 High Pass/Low Cut;
#X text 38 67 Band Pass;
#X text 36 19 Intro to Cut/Pass Filters;
#N canvas 0 23 1280 478 \$0-pass/cut_filters 0;
#N canvas 0 23 450 300 lpf 0;
#X obj 156 225 throw~ \$0-postFilter;
#X obj 156 196 lop~ 1000;
#X obj 231 156 inlet;
#X obj 101 139 *~, f 15;
#X obj 200 110 line~;
#X obj 201 61 == 1;
#X obj 201 37 r \$0-filterType_snd;
#X msg 201 85 \$1 5;
#X obj 49 60 receive~ \$0-source;
#X connect 1 0 0 0;
#X connect 2 0 1 1;
#X connect 3 0 1 0;
#X connect 4 0 3 1;
#X connect 5 0 7 0;
#X connect 6 0 5 0;
#X connect 7 0 4 0;
#X connect 8 0 3 0;
#X restore 570 211 pd lpf;
#X obj 632 198 hsl 128 15 20 20000 1 0 empty \$0-cutoff_rec cut-off_frequency
-2 -8 0 10 -166441 -262144 -1 7192 1;
#X floatatom 629 218 7 0 0 1 Hz - -;
#X obj 570 185 change;
#X obj 1129 192 hsl 128 15 20 20000 1 0 empty \$0-cutoff_rec cut-off_frequency
-2 -8 0 10 -166441 -262144 -1 7192 1;
#X floatatom 1126 212 7 0 0 1 Hz - -;
#X obj 1075 184 change;
#X text 1017 117 High Pass / Low Cut Filters;
#X text 1024 141 Cut frequencies below its cut-off frequency (e.g.
removing rumble);
#N canvas 0 23 450 300 hpf 0;
#X obj 96 73 r~ \$0-source;
#X obj 156 225 throw~ \$0-postFilter;
#X obj 231 156 inlet;
#X obj 101 139 *~, f 15;
#X obj 200 110 line~;
#X obj 201 37 r \$0-filterType_snd;
#X msg 201 85 \$1 5;
#X obj 156 196 hip~ 1000;
#X obj 201 61 == 2;
#X connect 0 0 3 0;
#X connect 2 0 7 1;
#X connect 3 0 7 0;
#X connect 4 0 3 1;
#X connect 5 0 8 0;
#X connect 6 0 4 0;
#X connect 7 0 1 0;
#X connect 8 0 6 0;
#X restore 1074 211 pd hpf;
#X text 520 123 Low Pass / High Cut Filters;
#X text 527 147 Cut frequencies above its cut-off frequency (e.g. removing
hiss);
#X obj 1571 200 hsl 128 15 20 20000 1 0 empty \$0-cutoff_rec centre_frequency
-2 -8 0 10 -166441 -262144 -1 7192 1;
#X floatatom 1567 219 7 0 0 1 Hz - -;
#X obj 1488 217 change;
#X text 1523 118 Band Pass Filters;
#X text 1531 143 Allow a specific range (band) of frequencies to pass
unattenuated Essentially HPF and LPF used in conjunction;
#N canvas 0 23 450 300 bp 0;
#X obj 96 73 r~ \$0-source;
#X obj 156 225 throw~ \$0-postFilter;
#X obj 231 156 inlet;
#X obj 101 139 *~, f 15;
#X obj 200 110 line~;
#X obj 201 37 r \$0-filterType_snd;
#X msg 201 85 \$1 5;
#X obj 201 61 == 3;
#X obj 156 196 bp~ 1000 1;
#X obj 275 155 inlet;
#X connect 0 0 3 0;
#X connect 2 0 8 1;
#X connect 3 0 8 0;
#X connect 4 0 3 1;
#X connect 5 0 7 0;
#X connect 6 0 4 0;
#X connect 7 0 6 0;
#X connect 8 0 1 0;
#X connect 9 0 8 2;
#X restore 1490 241 pd bp;
#X obj 1739 200 hsl 128 15 0.1 10 1 0 empty \$0-Q_rec Q_(quality) -2
-8 0 10 -166441 -262144 -1 6350 1;
#X floatatom 1735 219 7 0 0 1 - - -;
#X obj 1791 220 change;
#X obj 1540 241 cnv 15 405 57 empty empty empty 20 12 0 14 -228856
-66577 0;
#X text 1542 240 The ‘Quality’ or ‘Q’ factor provides information
on how narrow (precise) the effects of an equaliser are i.e. the ‘Quality’
factor is proportional to the number of octaves (or fraction of an
octave) being affected by a filter.;
#X obj 2020 121 cnv 15 425 57 empty empty empty 20 12 0 14 -228856
-66577 0;
#X obj 540 238 cnv 15 405 57 empty empty empty 20 12 0 14 -228856 -66577
0;
#X text 542 237 Cut-off frequency: frequency attenuated by 3dB or the
frequency at which the output is 3dB lower than the unattenuated frequencies
;
#X obj 1031 238 cnv 15 405 57 empty empty empty 20 12 0 14 -228856
-66577 0;
#X text 1033 237 Cut-off frequency: frequency attenuated by 3dB or
the frequency at which the output is 3dB lower than the unattenuated
frequencies;
#X obj 2035 182 cnv 15 405 100 empty empty empty 20 12 0 14 -228856
-66577 0;
#X text 2042 181 1st order filters (1 pole): rate of roll-off is 6dB
per octave;
#X text 2042 211 2nd order filters (2 pole): rate of roll-off is 12dB
per octave;
#X text 2042 244 3rd order filters (3 pole): rate of roll-off is 18dB
per octave;
#N canvas 0 23 707 488 lpf 0;
#X obj 314 428 throw~ \$0-postFilter;
#X obj 156 196 lop~ 1000;
#X obj 231 156 inlet;
#X obj 101 139 *~, f 15;
#X obj 200 110 line~;
#X obj 201 37 r \$0-filterType_snd;
#X msg 201 85 \$1 5;
#X obj 49 60 receive~ \$0-source;
#X obj 201 61 == 4;
#X obj 398 221 lop~ 1000;
#X obj 484 236 lop~ 1000;
#X obj 156 323 *~;
#X obj 176 297 line~;
#X msg 176 273 \$1 5;
#X obj 176 249 == 0;
#X obj 176 224 r \$0-order_snd;
#X obj 274 347 *~, f 8;
#X obj 274 321 line~;
#X msg 274 297 \$1 5;
#X obj 274 248 r \$0-order_snd;
#X obj 274 273 == 1;
#X obj 521 338 line~;
#X msg 521 314 \$1 5;
#X obj 521 265 r \$0-order_snd;
#X obj 484 260 *~;
#X obj 521 290 == 2;
#X connect 1 0 9 0;
#X connect 1 0 11 0;
#X connect 2 0 1 1;
#X connect 3 0 1 0;
#X connect 4 0 3 1;
#X connect 5 0 8 0;
#X connect 6 0 4 0;
#X connect 7 0 3 0;
#X connect 8 0 6 0;
#X connect 9 0 10 0;
#X connect 9 0 16 1;
#X connect 10 0 24 0;
#X connect 11 0 0 0;
#X connect 12 0 11 1;
#X connect 13 0 12 0;
#X connect 14 0 13 0;
#X connect 15 0 14 0;
#X connect 16 0 0 0;
#X connect 17 0 16 0;
#X connect 18 0 17 0;
#X connect 19 0 20 0;
#X connect 20 0 18 0;
#X connect 21 0 24 1;
#X connect 22 0 21 0;
#X connect 23 0 25 0;
#X connect 24 0 0 0;
#X connect 25 0 22 0;
#X restore 2290 323 pd lpf;
#X obj 2152 297 hsl 128 15 20 20000 1 0 empty \$0-cutoff_rec cut-off_frequency
-2 -8 0 10 -166441 -262144 -1 7192 1;
#X floatatom 2149 317 7 0 0 1 Hz - -;
#X obj 2290 297 change;
#X obj 2074 298 vradio 15 1 0 3 \$0-order_snd \$0-order_rec order 0
-8 0 10 -166441 -262144 -1 0;
#X text 2093 293 1st;
#X text 2093 309 2nd;
#X text 2093 325 3rd;
#X obj 13 143 cnv 15 410 100 empty empty empty 20 12 0 14 -228856 -66577
0;
#X text 18 145 Pass/Cut Filters;
#X text 19 186 Pass/Cut filters provide attenuating (cutting) facilities
above or below a certain frequency according to a given slope (number
of decibels per octave).;
#X text 2022 120 Slope: the rate of attenuation beyond the cut-off
frequency expressed in dB per octave;
#X text 2042 146 - This rate of roll-off is expressed through the ‘order’
value (number of stages in the circuit) of the filter;
#X connect 1 0 2 0;
#X connect 2 0 3 0;
#X connect 3 0 1 0;
#X connect 3 0 0 0;
#X connect 4 0 5 0;
#X connect 5 0 6 0;
#X connect 6 0 4 0;
#X connect 6 0 9 0;
#X connect 12 0 13 0;
#X connect 13 0 14 0;
#X connect 14 0 12 0;
#X connect 14 0 17 0;
#X connect 18 0 19 0;
#X connect 19 0 20 0;
#X connect 20 0 18 0;
#X connect 20 0 17 1;
#X connect 33 0 34 0;
#X connect 34 0 35 0;
#X connect 35 0 33 0;
#X connect 35 0 32 0;
#X coords 0 -1 1 1 450 250 1 0 100;
#X restore 86 110 pd \$0-pass/cut_filters;
#X text 37 81 Filter Slope;
#X coords 0 -1 1 1 610 390 2 10 10;
