#N canvas 0 23 1036 545 12;
#X obj 89 211 vsl 15 128 200 1000 1 0 \$0-freq_snd \$0-freq_rec frequency
0 -9 0 10 -166441 -262144 -1 0 1;
#X text 188 254 Press & hold the SPACEBAR to trigger the note;
#N canvas 0 23 773 350 synth 0;
#X floatatom 235 58 5 0 0 0 - - -;
#X obj 91 17 r \$0-freq_snd;
#X obj 315 168 r \$1-note;
#X obj 315 215 line~;
#X obj 90 215 *~;
#X obj 56 294 throw~ \$1-outL;
#X obj 169 295 throw~ \$1-outR;
#X obj 88 107 osc~ 200;
#X msg 315 191 \$1 25;
#X obj 481 119 sel 0 1;
#X obj 481 95 > 0;
#X msg 444 160 color 1 0 22;
#X msg 542 159 color 1 13 22;
#X obj 482 69 r \$1-note;
#X obj 498 201 s \$0-freq_rec;
#X msg 91 41 \$1 15;
#X obj 91 65 line~;
#X obj 657 163 r reset;
#X connect 1 0 0 0;
#X connect 1 0 15 0;
#X connect 2 0 8 0;
#X connect 3 0 4 1;
#X connect 4 0 5 0;
#X connect 4 0 6 0;
#X connect 7 0 4 0;
#X connect 8 0 3 0;
#X connect 9 0 11 0;
#X connect 9 1 12 0;
#X connect 10 0 9 0;
#X connect 11 0 14 0;
#X connect 12 0 14 0;
#X connect 13 0 10 0;
#X connect 15 0 16 0;
#X connect 16 0 7 0;
#X connect 17 0 14 0;
#X restore 723 58 pd synth;
#X text 132 123 The simplest cyclical fluctuations in pressure are
named ʻsine wavesʼ.;
#X text 131 42 Frequency (f) is the number of complete cycles of pressure
fluctuation that occur in one second \, expressed in c.p.s. or Hertz
e.g. one cycle per second is referred to as one Hertz (Hz).;
#X text 121 271 <------- change this slider and notice how the sound
changes;
#X coords 0 -1 1 1 610 390 2 10 10;
