#N canvas 0 23 1036 545 12;
#N canvas 249 198 738 686 soundSource 0;
#X obj 76 88 noise~;
#X text 431 49 FC= sqrt(FL∗FH);
#X obj 277 193 expr sqrt($f1*$f2);
#X msg 277 217 \$1 5;
#X obj 277 241 line~;
#X obj 241 371 vcf~ 5, f 17;
#X obj 272 154 r \$0-Fl_snd;
#X obj 365 155 r \$0-Fh_rec;
#X obj 48 18 r \$0-source_snd;
#X obj 48 42 t f f;
#X obj 125 90 == 1;
#X obj 138 144 *~;
#X obj 62 150 == 0;
#X obj 64 255 vline~;
#X obj 42 302 *~;
#X obj 30 196 *~ 1;
#X msg 64 231 1 10 \, 0.1 100 10 \, 0 50 200;
#X obj 64 207 metro 500;
#X obj 541 202 r \$0-fRange_snd;
#X obj 580 227 == 0;
#X obj 541 226 > 0;
#X obj 487 332 *~;
#X obj 198 331 *~, f 8;
#X obj 487 362 lop~ 15;
#X obj 487 386 lop~ 15;
#X obj 208 274 *~;
#X obj 231 92 r \$0-fRange_snd;
#X obj 231 116 < 8;
#X obj 315 500 *~ 1;
#X obj 542 488 r \$1-note;
#X obj 542 535 line~;
#X obj 317 535 *~;
#X obj 283 614 throw~ \$1-outL;
#X obj 396 615 throw~ \$1-outR;
#X msg 542 511 \$1 25;
#X connect 0 0 11 0;
#X connect 0 0 15 0;
#X connect 2 0 3 0;
#X connect 3 0 4 0;
#X connect 4 0 5 1;
#X connect 5 0 28 0;
#X connect 6 0 2 0;
#X connect 7 0 2 1;
#X connect 8 0 9 0;
#X connect 9 0 12 0;
#X connect 9 1 10 0;
#X connect 10 0 11 1;
#X connect 11 0 25 0;
#X connect 12 0 15 1;
#X connect 12 0 17 0;
#X connect 13 0 14 1;
#X connect 14 0 25 0;
#X connect 15 0 14 0;
#X connect 16 0 13 0;
#X connect 17 0 16 0;
#X connect 18 0 19 0;
#X connect 18 0 20 0;
#X connect 19 0 21 1;
#X connect 20 0 22 1;
#X connect 21 0 23 0;
#X connect 22 0 5 0;
#X connect 23 0 24 0;
#X connect 24 0 28 0;
#X connect 25 0 21 0;
#X connect 25 0 22 0;
#X connect 26 0 27 0;
#X connect 27 0 25 1;
#X connect 28 0 31 0;
#X connect 29 0 34 0;
#X connect 30 0 31 1;
#X connect 31 0 32 0;
#X connect 31 0 33 0;
#X connect 34 0 30 0;
#X restore 723 58 pd soundSource;
#X obj 458 29 vradio 15 1 1 2 \$0-source_snd \$0-source_rec Sound_Source
0 -8 0 10 -166441 -262144 -1 0;
#X text 474 44 noise;
#X text 474 25 pulse;
#X obj 28 31 vradio 15 1 1 9 \$0-fRange_snd \$0-fRange_rec Frequency_Range
0 -8 0 10 -166441 -262144 -1 0;
#X text 47 28 infrasonic;
#X text 47 45 very low;
#X text 47 60 low;
#X text 47 77 low-mid;
#X text 47 92 mid;
#X text 47 106 high-mid;
#X text 47 121 high;
#X text 47 135 very high;
#X text 47 150 ultrasonic;
#N canvas 187 86 1093 539 display_logic 0;
#X obj 91 266 r \$0-fRange_snd;
#X obj 25 306 sel 0 1 2 3 4 5 6 7 8, f 84;
#X msg 47 336 0 20;
#X msg 87 336 20 40;
#X msg 133 336 40 125;
#X msg 187 336 125 315;
#X obj 182 423 unpack;
#X obj 180 466 s \$0-Fl_rec;
#X obj 285 468 s \$0-Fh_rec;
#X msg 246 336 315 2000;
#X msg 305 336 2000 4000;
#X msg 372 337 4000 10000;
#X msg 448 337 10000 20000;
#X msg 528 338 20000 100000;
#X msg 559 146 0;
#X obj 454 181 pack f f;
#X msg 454 148 1;
#X obj 470 113 t b f b;
#X msg 454 206 donecanvasdialog 1 -1 \$1 0 -1 1 1 400 200 \$2 100 \,
dirty 0;
#X obj 503 148 * 400;
#X obj 464 83 r \$0-fRange_snd;
#X obj 198 12 r reset;
#X msg 198 36 0;
#X obj 91 92 s \$0-fRange_rec;
#X obj 198 60 s \$0-source_rec;
#X obj 454 232 s pd-\$0-info_on_frequency_ranges;
#X obj 790 333 sel 0 1;
#X obj 790 309 > 0;
#X msg 753 374 color 1 0 22;
#X msg 851 373 color 1 13 22;
#X obj 791 283 r \$1-note;
#X obj 966 377 r reset;
#X obj 791 442 s \$0-source_rec;
#X obj 925 271 tgl 15 0 empty empty empty 17 7 0 10 -262144 -1 -1 0
1;
#X obj 911 443 s \$0-fRange_rec;
#X obj 659 425 s \$0-fRange_Canvas;
#X msg 598 401 color 1;
#X msg 664 398 color 13;
#X connect 0 0 1 0;
#X connect 1 0 2 0;
#X connect 1 1 3 0;
#X connect 1 2 4 0;
#X connect 1 3 5 0;
#X connect 1 4 9 0;
#X connect 1 5 10 0;
#X connect 1 6 11 0;
#X connect 1 7 12 0;
#X connect 1 8 13 0;
#X connect 2 0 6 0;
#X connect 3 0 6 0;
#X connect 4 0 6 0;
#X connect 5 0 6 0;
#X connect 6 0 7 0;
#X connect 6 1 8 0;
#X connect 9 0 6 0;
#X connect 10 0 6 0;
#X connect 11 0 6 0;
#X connect 12 0 6 0;
#X connect 13 0 6 0;
#X connect 14 0 15 0;
#X connect 15 0 18 0;
#X connect 16 0 15 0;
#X connect 17 0 16 0;
#X connect 17 1 19 0;
#X connect 17 2 14 0;
#X connect 18 0 25 0;
#X connect 19 0 15 1;
#X connect 20 0 17 0;
#X connect 21 0 22 0;
#X connect 22 0 23 0;
#X connect 22 0 24 0;
#X connect 26 0 28 0;
#X connect 26 0 36 0;
#X connect 26 1 29 0;
#X connect 26 1 37 0;
#X connect 27 0 26 0;
#X connect 28 0 32 0;
#X connect 28 0 34 0;
#X connect 29 0 32 0;
#X connect 29 0 34 0;
#X connect 30 0 27 0;
#X connect 31 0 32 0;
#X connect 31 0 34 0;
#X connect 33 0 27 0;
#X connect 36 0 35 0;
#X connect 37 0 35 0;
#X coords 0 539 1 538 400 200 0;
#X restore 757 166 pd display_logic;
#X text 189 104 Press & hold the SPACEBAR to trigger the sound source
;
#X text 122 121 <------- change between frequency ranges here;
#X obj 118 187 cnv 15 398 198 empty empty empty 20 12 0 14 -233017
-66577 0;
#X obj 356 326 cnv 15 160 60 empty \$0-fRange_Canvas empty 20 12 0
14 -166441 -66577 0;
#X floatatom 462 348 5 0 20000 0 Low_Frequency #0-Fl_rec #0-Fl_snd
;
#X text 370 326 Frequency Range;
#X floatatom 462 366 5 0 0 0 High_Frequency #0-Fh_rec #0-Fh_snd;
#X text 499 348 Hz;
#X text 499 368 Hz;
#N canvas 0 23 1280 478 \$0-info_on_frequency_ranges 0;
#X text 5 131 Infra-Sonic Frequencies 0Hz to 20Hz (approximately);
#X text 49 167 Rumble (e.g. trains and underground);
#X text 49 191 Not usually audible but felt;
#X text 49 215 Produced by very large pipe organs;
#X text 403 129 Very Low Frequencies (VLF) 20Hz to 40Hz (approximately)
;
#X text 456 165 Wind \, room rumble \, distant thunder;
#X text 456 185 Lowest fundamental of piano \, harp \,;
#X text 521 202 medium-sized pipe organs;
#X text 806 128 Low Frequencies (LF) 40Hz to 125Hz (approximately)
;
#X text 816 148 Left-hand on piano and organ;
#X text 816 168 Fundamentals for:;
#X text 849 187 Low drums (bass drum / toms) \, bass \, tuba \,;
#X text 849 223 bassoon \, French horn \, cello \, viola \,;
#X text 850 241 bass and baritone voices;
#X text 849 205 accordion \, guitar \, baritone saxophone \, trombone
\,;
#X text 1233 170 Fundamentals for:;
#X text 1203 128 Low-Mid Frequencies (LMF) 125Hz to 315Hz (approximately)
;
#X text 1233 150 Transition between bass and mid-range;
#X text 1266 188 Trumpet \, flugelhorn \, oboe \, violin \, flute \,
;
#X text 1266 206 alto and soprano saxophone \,;
#X text 1267 224 tenor to soprano voices;
#X text 1613 128 Mid Frequencies (MF) 315Hz to 2000Hz (approximately)
;
#X text 1657 150 Majority of sound energy of all instruments is;
#X text 1686 165 found within this range;
#X text 1676 187 Fundamentals for:;
#X text 1676 205 Piccolo flute \, chimes;
#X text 2006 131 High-Mid Frequencies (HMF) 2000Hz to 4000Hz (approx.)
;
#X text 2019 153 Clarity and definition (harmonics for singing voices)
;
#X text 2026 171 Vocal intelligibility;
#X text 2432 154 Brilliance - low acoustical energy;
#X text 2439 172 Tooth \, tongue \, lips (vocal detail);
#X text 2409 131 High Frequencies (HF) 4000Hz to 10 \, 000Hz (approx.)
;
#X text 2809 138 Very-High Frequencies (VHF) 10 \, 000Hz to 20 \, 000Hz
(approximately);
#X text 2820 168 Realism / Very high harmonics (low acoustical energy)
;
#X text 2819 186 Air \, possible projection to voice \, cymbals;
#X text 3210 137 Ultra-Sonic Frequencies 20 \, 0 Hz +;
#X text 3230 160 Possibly felt but in theory not heard;
#X text 3204 185 NOTE: Due to the limits of digital audio \, ultrasonic
frequencies cannot be encoded using a sampling rate of 44100Hz;
#X coords 0 -1 1 1 400 200 1 0 100;
#X restore 117 186 pd \$0-info_on_frequency_ranges;
#X coords 0 -1 1 1 610 390 2 10 10;
