#N canvas 272 163 960 526 12;
#X obj 60 286 hip~, f 6;
#X obj 60 310 lop~, f 8;
#X obj 60 427 *~, f 7;
#X msg 212 415 \$1 5;
#X obj 212 439 line~;
#X text 736 20 Fc = sqrt(Fl*Fh);
#X floatatom 179 251 5 0 0 0 - - -;
#X obj 179 199 expr $f1*pow(2 \, (-1 * $f2 / 2) ), f 15;
#X floatatom 386 254 5 0 0 0 - - -;
#X obj 386 202 expr $f1*pow(2 \, ($f2 / 2) ), f 11;
#X floatatom 262 415 5 0 0 0 - - -;
#X text 489 48 arg 1 -> \$0 of parent;
#X obj 273 60 inlet;
#X text 491 72 voice #;
#X text 736 62 Fh = Fc*2^(n/2);
#X text 736 41 Fl = Fc*2^(-n/2);
#X obj 1 3 vsl 15 145 0 1 0 0 \$0-geq_gain_snd \$0-geq_gain_rec empty
0 -9 0 10 -166441 -262144 -1 0 1;
#X obj 212 392 r \$0-geq_gain_snd;
#X obj 456 49 f \$1;
#X obj 456 73 f \$2;
#X obj 60 20 r~ \$1-geq_in;
#X obj 60 451 throw~ \$1-geq_out;
#X obj 460 128 r \$0-8veperS;
#X obj 281 146 r \$0-8veperS;
#X obj 179 146 r \$0-Fc;
#X obj 386 162 r \$0-Fc;
#N canvas 563 37 694 398 load 0;
#X obj 489 82 loadbang;
#X obj 431 82 r reset;
#X obj 106 55 loadbang;
#X obj 48 55 r reset;
#X obj 504 214 tabwrite \$1-bandIDs;
#X obj 63 133 tabread \$1-centreF;
#X obj 63 82 f \$2;
#X obj 571 92 bng 15 250 50 0 empty empty empty 17 7 0 10 -262144 -1
-1;
#X obj 504 190 pack \$0 \$2;
#X obj 237 39 r \$1-8veperS;
#X obj 237 110 t b f;
#X obj 273 192 s \$0-8veperS;
#X obj 273 170 f;
#X obj 63 162 t f b, f 22;
#X obj 63 186 s \$0-Fc;
#X connect 0 0 8 0;
#X connect 1 0 8 0;
#X connect 2 0 6 0;
#X connect 3 0 6 0;
#X connect 5 0 13 0;
#X connect 6 0 5 0;
#X connect 7 0 8 0;
#X connect 8 0 4 0;
#X connect 9 0 10 0;
#X connect 10 0 6 0;
#X connect 10 1 12 0;
#X connect 12 0 11 0;
#X connect 13 0 14 0;
#X connect 13 1 12 0;
#X restore 662 143 pd load;
#X obj 380 407 t f b;
#X obj 447 419 f \$2;
#X obj 361 447 tabwrite \$1-geqDisp;
#X obj 60 342 lop~, f 8;
#X obj 60 256 hip~, f 6;
#X connect 0 0 1 0;
#X connect 1 0 30 0;
#X connect 2 0 21 0;
#X connect 3 0 4 0;
#X connect 4 0 2 1;
#X connect 6 0 0 1;
#X connect 6 0 31 1;
#X connect 7 0 6 0;
#X connect 8 0 1 1;
#X connect 8 0 30 1;
#X connect 9 0 8 0;
#X connect 17 0 3 0;
#X connect 17 0 10 0;
#X connect 17 0 27 0;
#X connect 20 0 31 0;
#X connect 22 0 9 1;
#X connect 23 0 7 1;
#X connect 24 0 7 0;
#X connect 25 0 9 0;
#X connect 27 0 29 0;
#X connect 27 1 28 0;
#X connect 28 0 29 1;
#X connect 30 0 2 0;
#X connect 31 0 0 0;
#X coords 0 -1 1 1 17 152 2 0 0;
