#N canvas 68 164 1113 538 12;
#X obj 636 75 bng 15 250 50 0 empty empty empty 17 7 0 10 -262144 -1
-1;
#X obj 636 92 s reset;
#X obj 256 109 inlet~;
#X obj 2 2 geq_band~ \$0 0;
#X obj 256 133 s~ \$0-geq_in;
#X obj 251 192 catch~ \$0-geq_out;
#N canvas 391 101 560 583 guts 0;
#X obj 16 6 array define \$0-bandIDs 8;
#X obj 284 326 t b;
#X msg 284 350 1;
#X obj 284 374 + -1, f 7;
#X obj 284 398 int, f 5;
#X msg 330 350 -1;
#X obj 284 302 until;
#X msg 284 279 8;
#X obj 284 236 bng 15 250 50 0 empty empty empty 17 7 0 10 -262144
-1 -1;
#X obj 16 25 array define \$0-centreF 8;
#X obj 124 136 s \$0-8veperS;
#X msg 124 112 1;
#X obj 86 69 loadbang;
#X obj 153 69 r reset;
#X obj 72 308 t b;
#X msg 72 332 1;
#X obj 72 356 + -1, f 7;
#X obj 72 380 int, f 5;
#X msg 118 332 -1;
#X obj 72 284 until;
#X msg 72 261 8;
#X obj 72 218 bng 15 250 50 0 empty empty empty 17 7 0 10 -262144 -1
-1;
#X obj 72 238 t b b, f 7;
#X obj 72 404 tabread \$0-bandIDs;
#X obj 72 428 pack 0 0.5;
#X msg 72 454 \; \$1-geq_gain_rec \$2;
#X msg 397 361 100;
#X obj 284 256 t b b b, f 13;
#X obj 284 422 t f f;
#X obj 324 457 expr $f2*pow(2 \, $f1);
#X text 428 359 <--- first Fc;
#X obj 284 488 pack;
#X msg 284 512 \$2 \$1;
#X obj 284 536 tabwrite \$0-centreF;
#X obj 194 180 r reset;
#X obj 259 179 loadbang;
#X obj 72 195 del 50;
#X connect 1 0 2 0;
#X connect 2 0 3 0;
#X connect 3 0 4 0;
#X connect 4 0 3 1;
#X connect 4 0 28 0;
#X connect 5 0 3 1;
#X connect 6 0 1 0;
#X connect 7 0 6 0;
#X connect 8 0 27 0;
#X connect 11 0 10 0;
#X connect 12 0 11 0;
#X connect 13 0 11 0;
#X connect 14 0 15 0;
#X connect 15 0 16 0;
#X connect 16 0 17 0;
#X connect 17 0 16 1;
#X connect 17 0 23 0;
#X connect 18 0 16 1;
#X connect 19 0 14 0;
#X connect 20 0 19 0;
#X connect 21 0 22 0;
#X connect 22 0 20 0;
#X connect 22 1 18 0;
#X connect 23 0 24 0;
#X connect 24 0 25 0;
#X connect 26 0 29 1;
#X connect 27 0 7 0;
#X connect 27 1 5 0;
#X connect 27 2 26 0;
#X connect 28 0 31 0;
#X connect 28 1 29 0;
#X connect 29 0 31 1;
#X connect 31 0 32 0;
#X connect 32 0 33 0;
#X connect 34 0 8 0;
#X connect 34 0 36 0;
#X connect 35 0 8 0;
#X connect 35 0 36 0;
#X connect 36 0 21 0;
#X restore 547 74 pd guts;
#X obj 18 2 geq_band~ \$0 1;
#X obj 34 2 geq_band~ \$0 2;
#X obj 50 2 geq_band~ \$0 3;
#X obj 66 2 geq_band~ \$0 4;
#X obj 82 2 geq_band~ \$0 5;
#X obj 98 2 geq_band~ \$0 6;
#X obj 114 2 geq_band~ \$0 7;
#X text 345 134 <-- received inside band slider abstraction;
#X text 384 195 <-- sent from inside band slider abstraction;
#X obj 251 216 outlet~;
#N canvas 0 22 450 278 (subpatch) 0;
#X array \$0-geqDisp 8 float 5;
#A 0 0.5 0.5 0.5 0.5 0.5 0.5 0.5 0.5;
#X coords 0 1 7 0 129 60 2 0 0;
#X restore 2 169 graph;
#X obj 785 77 f \$0;
#X obj 785 101 outlet;
#X obj 778 30 loadbang;
#X obj 849 23 r reset;
#X obj 3 170 cnv 15 127 58 empty \$0-geqCanvas empty 20 12 0 14 -166441
-1 0;
#X connect 0 0 1 0;
#X connect 2 0 4 0;
#X connect 5 0 16 0;
#X connect 18 0 19 0;
#X connect 20 0 18 0;
#X connect 21 0 18 0;
#X coords 0 -1 1 1 131 229 2 1 1;
