#N canvas 22 128 830 532 12;
#X obj 10 25 harmSlider 0 \$0;
#X obj 47 25 harmSlider 1 \$0;
#X obj 84 25 harmSlider 2 \$0;
#X obj 158 25 harmSlider 4 \$0;
#X obj 195 25 harmSLider 5 \$0;
#X obj 232 25 harmSLider 6 \$0;
#X obj 269 25 harmSLider 7 \$0;
#X obj 121 25 harmSlider 3 \$0;
#X obj 306 25 harmSlider 8 \$0;
#X obj 343 25 harmSlider 9 \$0;
#X obj 380 25 harmSlider 10 \$0;
#X obj 417 25 harmSlider 11 \$0;
#X obj 454 25 harmSlider 12 \$0;
#X obj 491 25 harmSlider 13 \$0;
#X obj 528 25 harmSlider 14 \$0;
#X obj 565 25 harmSlider 15 \$0;
#X obj 37 320 vradio 15 1 0 4 \$0-waveType_snd \$0-waveType_rec empty
0 -8 0 10 -166441 -262144 -1 0;
#X text 53 317 sine;
#N canvas 233 231 953 495 guts 0;
#X obj 385 92 array define \$0-harmonicsIDs 16;
#X obj 385 114 array define \$0-harmonicsAmps 16;
#X obj 385 70 array define \$0-sliderIDs 16;
#N canvas 0 23 473 388 fundamentalWaveforms 0;
#X msg 135 55 16;
#X obj 135 79 until;
#X obj 135 31 t b b f, f 13;
#X msg 135 103 1, f 1;
#X obj 135 127 + -1;
#X obj 135 151 int;
#X msg 179 104 -1, f 2;
#X obj 135 175 pack, f 13;
#X msg 135 199 \$2 \$1;
#X obj 135 223 route 0 1 2 3 4 5, f 30;
#N canvas 0 23 659 414 sine 0;
#X obj 281 48 inlet;
#X obj 278 74 t f f, f 9;
#X obj 439 124 expr if($i1 == 0 \, 1 \, 0);
#X obj 239 107 tabread \$0-sliderIDs, f 13;
#X obj 239 146 pack, f 29;
#X msg 239 170 \; \$1-slider_rec \$2;
#X msg 120 169 \; \$1-phase_rec 0;
#X connect 0 0 1 0;
#X connect 1 0 3 0;
#X connect 1 1 2 0;
#X connect 2 0 4 1;
#X connect 3 0 4 0;
#X connect 3 0 6 0;
#X connect 4 0 5 0;
#X restore 93 268 pd sine;
#N canvas 0 23 588 300 saw 0;
#X obj 216 44 inlet;
#X obj 213 70 t f f, f 9;
#X obj 174 103 tabread \$0-sliderIDs, f 13;
#X obj 174 142 pack, f 29;
#X msg 174 166 \; \$1-slider_rec \$2;
#X obj 374 120 expr 1/($f1 + 1);
#X msg 48 156 \; \$1-phase_rec 0;
#X connect 0 0 1 0;
#X connect 1 0 2 0;
#X connect 1 1 5 0;
#X connect 2 0 3 0;
#X connect 2 0 6 0;
#X connect 3 0 4 0;
#X connect 5 0 3 1;
#X restore 152 268 pd saw;
#N canvas 0 23 732 300 square 0;
#X obj 291 38 inlet;
#X obj 288 64 t f f, f 9;
#X obj 249 97 tabread \$0-sliderIDs, f 13;
#X obj 249 136 pack, f 29;
#X msg 249 160 \; \$1-slider_rec \$2;
#X obj 449 114 expr if($f1%2 ==0 \, 1/($f1 + 1) \, 0);
#X msg 120 169 \; \$1-phase_rec 0;
#X connect 0 0 1 0;
#X connect 1 0 2 0;
#X connect 1 1 5 0;
#X connect 2 0 3 0;
#X connect 2 0 6 0;
#X connect 3 0 4 0;
#X connect 5 0 3 1;
#X restore 203 268 pd square;
#N canvas 572 23 708 489 tri 0;
#X obj 38 23 inlet;
#X obj 37 167 tabread \$0-sliderIDs, f 13;
#X obj 37 295 pack, f 29;
#X msg 37 319 \; \$1-slider_rec \$2;
#X obj 295 129 t f f;
#X obj 295 153 *;
#X obj 237 184 expr if($f1%2 ==0 \, 1/$f2 \, 0), f 18;
#X obj 294 106 + 1;
#X obj 38 49 t f f f f, f 77;
#X obj 521 225 / 2;
#X obj 521 270 % 2;
#X obj 521 318 sel 0 1;
#X obj 521 249 int;
#X obj 521 294 == 1;
#X obj 426 225 tabread \$0-sliderIDs, f 12;
#X obj 426 201 t f f, f 14;
#X obj 521 369 int;
#X obj 315 398 pack, f 30;
#X msg 315 422 \; \$1-phase_rec \$2;
#X msg 521 342 0;
#X msg 554 342 1;
#X obj 315 374 f, f 27;
#X obj 315 255 == 0;
#X msg 332 337 \; \$1-phase_rec 0;
#X obj 332 314 f, f 9;
#X obj 315 279 sel 0 1;
#X connect 0 0 8 0;
#X connect 1 0 2 0;
#X connect 2 0 3 0;
#X connect 4 0 5 0;
#X connect 4 1 5 1;
#X connect 5 0 6 1;
#X connect 6 0 2 1;
#X connect 6 0 22 0;
#X connect 7 0 4 0;
#X connect 8 0 1 0;
#X connect 8 1 6 0;
#X connect 8 2 7 0;
#X connect 8 3 15 0;
#X connect 9 0 12 0;
#X connect 10 0 13 0;
#X connect 11 0 19 0;
#X connect 11 1 20 0;
#X connect 12 0 10 0;
#X connect 13 0 11 0;
#X connect 14 0 21 1;
#X connect 14 0 24 1;
#X connect 15 0 14 0;
#X connect 15 1 9 0;
#X connect 16 0 17 1;
#X connect 17 0 18 0;
#X connect 19 0 16 0;
#X connect 20 0 16 0;
#X connect 21 0 17 0;
#X connect 22 0 25 0;
#X connect 24 0 23 0;
#X connect 25 0 21 0;
#X connect 25 1 24 0;
#X restore 275 268 pd tri;
#X obj 135 6 r \$0-waveType_snd;
#X connect 0 0 1 0;
#X connect 1 0 3 0;
#X connect 2 0 0 0;
#X connect 2 1 6 0;
#X connect 2 2 7 1;
#X connect 3 0 4 0;
#X connect 4 0 5 0;
#X connect 5 0 4 1;
#X connect 5 0 7 0;
#X connect 6 0 4 1;
#X connect 7 0 8 0;
#X connect 8 0 9 0;
#X connect 9 0 10 0;
#X connect 9 1 11 0;
#X connect 9 2 12 0;
#X connect 9 3 13 0;
#X connect 14 0 2 0;
#X restore 177 81 pd fundamentalWaveforms;
#X obj 279 208 s \$0-freq_rec;
#N canvas 0 23 696 598 synth 0;
#X obj 134 204 r \$0-freq_snd;
#X msg 134 230 all freq \$1;
#X obj 8 6 r \$0-disp;
#X obj 56 130 t b b;
#X obj 88 180 t b f;
#X msg 88 204 1, f 1;
#X obj 88 228 /;
#X obj 88 306 *~, f 7;
#X msg 88 252 \$1 5;
#X obj 88 277 line~;
#X obj 81 30 t b;
#X obj 81 54 del 50;
#X obj 81 6 r \$0-freq_snd;
#X obj 88 155 array sum \$0-harmonicsAmps;
#X obj 134 253 clone harmonic~ 16 \$0, f 19;
#X obj 320 303 r \$1-note;
#X obj 320 351 line~;
#X obj 95 351 *~;
#X obj 61 430 throw~ \$1-outL;
#X obj 174 431 throw~ \$1-outR;
#X msg 320 327 \$1 50;
#X connect 0 0 1 0;
#X connect 1 0 14 0;
#X connect 2 0 3 0;
#X connect 3 1 13 0;
#X connect 4 0 5 0;
#X connect 4 1 6 1;
#X connect 5 0 6 0;
#X connect 6 0 8 0;
#X connect 7 0 17 0;
#X connect 8 0 9 0;
#X connect 9 0 7 0;
#X connect 10 0 11 0;
#X connect 11 0 3 0;
#X connect 12 0 10 0;
#X connect 13 0 4 0;
#X connect 14 0 7 1;
#X connect 15 0 20 0;
#X connect 16 0 17 1;
#X connect 17 0 18 0;
#X connect 17 0 19 0;
#X connect 20 0 16 0;
#X restore 85 80 pd synth;
#X obj 231 134 r reset;
#X obj 146 242 s \$0-waveType_rec;
#X msg 279 186 200;
#X obj 585 161 r \$1-note;
#X obj 583 218 sel 0 1;
#X obj 583 194 > 0;
#X obj 600 300 s \$0-bg_rec;
#X msg 644 259 color 13 22;
#X msg 546 259 color 1 22;
#X obj 231 158 t b b;
#X msg 146 217 0;
#X obj 752 292 s \$0-waveType_rec;
#X obj 782 195 sel 0 1;
#X msg 745 236 color 1 0 22;
#X msg 842 236 color 1 13 22;
#X connect 6 0 15 0;
#X connect 8 0 4 0;
#X connect 9 0 11 0;
#X connect 10 0 14 0;
#X connect 10 1 13 0;
#X connect 11 0 10 0;
#X connect 11 0 18 0;
#X connect 13 0 12 0;
#X connect 14 0 12 0;
#X connect 15 1 8 0;
#X connect 16 0 7 0;
#X connect 18 0 19 0;
#X connect 18 1 20 0;
#X connect 19 0 17 0;
#X connect 20 0 17 0;
#X restore 501 412 pd guts;
#X obj 10 7 cnv 15 190 16 empty \$0-bg_rec empty 20 12 0 14 -166441
-1 0;
#X floatatom 10 6 5 0 0 1 fundamental_(Hz) #0-freq_rec #0-freq_snd
;
#X text 178 316 Press & hold the SPACEBAR to trigger the note;
#X text 180 204 Harmonics are integer multiples of the fundamental.
The fundamental is the first harmonic \, and the frequency of each
subsequent harmonic is [fundamental * index].;
#X text 180 253 e.g. if the fundamental is 200Hz the 2nd harmonic is
200*2 (i.e. 400Hz) \, and the 3rd harmonic is 600Hz (3 * 200) etc etc
;
#X text 134 332 <---- change between fundamental waveforms here;
#X text 177 348 Note how much the waveform changes as you change the
frequency content!!!!;
#X text 54 333 sawtooth;
#X text 53 349 square;
#X text 53 364 triangle;
#X obj 646 231 r reset;
#X obj 645 304 s \$0-waveType_rec;
#X msg 645 279 0;
#X obj 646 255 del 200;
#X connect 29 0 32 0;
#X connect 31 0 30 0;
#X connect 32 0 31 0;
#X coords 0 -1 1 1 610 390 2 1 1;
