#N canvas 88 434 468 268 12;
#X obj 10 30 vsl 15 128 0 1 0 0 \$0-slider_snd \$0-slider_rec empty
0 -9 0 10 -228856 -1 -1 907 1;
#N canvas 290 23 684 317 internalDisplayLogic 0;
#X obj 30 77 loadbang;
#X obj 30 100 f \$1;
#X obj 30 172 s \$0-voiceN_rec;
#X msg 30 149 symbol h\$1;
#X floatatom 381 155 5 0 0 0 - - -;
#X obj 381 131 r \$0-num_snd;
#X obj 475 181 s \$0-num_rec;
#X obj 475 158 change;
#X obj 475 131 r \$0-slider_snd;
#X obj 381 203 s \$0-slider_rec;
#X obj 381 178 clip 0 1;
#X obj 30 124 + 1;
#X obj 197 20 r \$0-phase_snd;
#X obj 203 107 s \$0-phase_rec;
#X obj 197 44 sel 0 1;
#X msg 197 68 color 0 0 0;
#X msg 295 68 color 14 14 14;
#X obj 62 35 r reset;
#X connect 0 0 1 0;
#X connect 1 0 11 0;
#X connect 3 0 2 0;
#X connect 4 0 10 0;
#X connect 5 0 4 0;
#X connect 7 0 6 0;
#X connect 8 0 7 0;
#X connect 10 0 9 0;
#X connect 11 0 3 0;
#X connect 12 0 14 0;
#X connect 14 0 15 0;
#X connect 14 1 16 0;
#X connect 15 0 13 0;
#X connect 16 0 13 0;
#X connect 17 0 1 0;
#X restore 211 106 pd internalDisplayLogic;
#N canvas 0 23 450 300 load 0;
#X obj 63 14 loadbang;
#X obj 279 97 list \$0 \$1;
#X obj 279 121 tabwrite \$2-sliderIDs;
#X obj 157 123 s \$0-slider_rec;
#X msg 42 95 0;
#X obj 312 53 del 100;
#X obj 225 4 r reset;
#X obj 42 119 s \$0-phase_rec;
#X connect 0 0 1 0;
#X connect 0 0 3 0;
#X connect 0 0 4 0;
#X connect 0 0 5 0;
#X connect 1 0 2 0;
#X connect 4 0 7 0;
#X connect 5 0 1 0;
#X connect 6 0 4 0;
#X connect 6 0 3 0;
#X connect 6 0 5 0;
#X connect 6 0 1 0;
#X restore 211 129 pd load;
#N canvas 0 23 896 330 messagesToOutside 0;
#X obj 293 128 tabwrite \$2-harmonicsAmps;
#X obj 293 102 pack 0 \$1;
#X msg 167 246 \; \$1-a-\$2 \$3;
#X text 206 195 voice #;
#X obj 348 196 f;
#X text 374 195 value;
#X obj 168 196 f \$2;
#X obj 167 223 pack 0 \$1 0, f 27;
#X obj 168 171 t b b f, f 26;
#X obj 257 196 f \$1;
#X obj 44 55 r \$0-slider_snd;
#X obj 44 104 s \$2-disp;
#X obj 44 78 t b f f, f 36;
#X text 89 195 parent ID;
#X obj 621 61 r \$0-phase_snd;
#X msg 621 220 \; \$1-phase-\$2 \$3;
#X obj 621 85 sel 0 1;
#X msg 621 109 1, f 1;
#X msg 640 109 -1, f 2;
#X text 659 165 voice #;
#X obj 801 166 f;
#X text 827 165 value;
#X obj 621 166 f \$2;
#X obj 621 193 pack 0 \$1 0, f 27;
#X obj 621 141 t b b f, f 26;
#X obj 710 166 f \$1;
#X text 542 165 parent ID;
#X connect 1 0 0 0;
#X connect 4 0 7 2;
#X connect 6 0 7 0;
#X connect 7 0 2 0;
#X connect 8 0 6 0;
#X connect 8 1 9 0;
#X connect 8 2 4 0;
#X connect 9 0 7 1;
#X connect 10 0 12 0;
#X connect 12 0 11 0;
#X connect 12 1 8 0;
#X connect 12 2 1 0;
#X connect 14 0 16 0;
#X connect 16 0 17 0;
#X connect 16 1 18 0;
#X connect 17 0 24 0;
#X connect 18 0 24 0;
#X connect 20 0 23 2;
#X connect 22 0 23 0;
#X connect 23 0 15 0;
#X connect 24 0 22 0;
#X connect 24 1 25 0;
#X connect 24 2 20 0;
#X connect 25 0 23 1;
#X restore 211 153 pd messagesToOutside;
#X obj 25 146 tgl 15 0 \$0-phase_snd \$0-phase_rec empty 2 7 0 4 -262144
-262144 -262144 0 1;
#X text 27 144 ø;
#X text 248 196 sjf \, SAE London 2020;
#X obj 10 10 cnv 15 37 18 empty empty empty 20 12 0 14 -204800 -66577
0;
#X symbolatom 10 10 5 0 0 0 - #0-voiceN_rec #0-voiceN_snd;
#X obj 10 161 cnv 15 37 18 empty empty empty 20 12 0 14 -203904 -66577
0;
#X floatatom 10 161 5 0 1 0 - #0-num_rec #0-num_snd;
#X coords 0 -1 1 1 37 169 2 10 10;
