#N canvas 641 77 639 697 12;
#X obj 37 498 *~, f 11;
#X obj 358 74 loadbang;
#X obj 37 521 outlet~;
#X obj 125 14 loadbang;
#X obj 125 38 f \$1;
#X obj 125 62 + 1;
#X obj 110 316 r \$2-a-\$1;
#X text 176 301 receive symbol is;
#X symbolatom 182 317 10 0 0 0 - #0-rSymbol -;
#N canvas 0 23 450 300 displayLogic 0;
#X obj 146 64 loadbang;
#X obj 146 88 list \$2 \$1;
#X msg 146 112 symbol \$1-a-\$2;
#X obj 146 136 s \$0-rSymbol;
#X connect 0 0 1 0;
#X connect 1 0 2 0;
#X connect 2 0 3 0;
#X restore 300 22 pd displayLogic;
#X msg 110 452 \$1 5;
#X obj 110 476 line~;
#X obj 334 130 tabwrite \$2-harmonicsIDs;
#X obj 334 101 list \$0 \$1;
#X floatatom 110 340 5 0 0 0 - - -;
#X floatatom 125 86 5 0 0 0 - - -;
#X obj 37 37 inlet;
#X obj 37 110 *, f 13;
#X text 24 16 frequency;
#N canvas 0 23 627 377 oscLogic 0;
#X obj 85 37 inlet;
#X obj 176 269 osc~;
#X obj 130 208 t b f, f 7;
#X msg 130 232 0.75;
#X text 183 236 osc~ outputs cosine so setting phase to 0.75 creates
sinwave;
#X obj 176 333 outlet~;
#X obj 7 179 r \$2-resetPhase;
#X obj 85 61 change;
#X connect 0 0 7 0;
#X connect 1 0 5 0;
#X connect 2 0 3 0;
#X connect 2 1 1 0;
#X connect 3 0 1 1;
#X connect 6 0 3 0;
#X connect 7 0 2 0;
#X restore 37 273 pd oscLogic;
#X obj 37 61 route freq;
#X obj 117 365 r \$2-phase-\$1;
#X obj 110 428 * 1, f 6;
#X obj 117 401 t b f;
#X floatatom 211 400 5 0 0 0 - - -;
#X text 344 470 sjf \, SAE London 2020;
#X obj 197 16 r reset;
#X obj 300 74 r reset;
#X obj 37 246 * 1, f 10;
#X obj 72 140 r \$2-fmod-\$1;
#X obj 72 219 t b f;
#X connect 0 0 2 0;
#X connect 1 0 13 0;
#X connect 3 0 4 0;
#X connect 4 0 5 0;
#X connect 5 0 15 0;
#X connect 6 0 14 0;
#X connect 10 0 11 0;
#X connect 11 0 0 1;
#X connect 13 0 12 0;
#X connect 14 0 22 0;
#X connect 15 0 17 1;
#X connect 16 0 20 0;
#X connect 17 0 28 0;
#X connect 19 0 0 0;
#X connect 20 0 17 0;
#X connect 21 0 23 0;
#X connect 21 0 24 0;
#X connect 22 0 10 0;
#X connect 23 0 22 0;
#X connect 23 1 22 1;
#X connect 26 0 4 0;
#X connect 27 0 13 0;
#X connect 28 0 19 0;
#X connect 29 0 30 0;
#X connect 30 0 28 0;
#X connect 30 1 28 1;
