#N canvas 0 23 658 491 12;
#N canvas 781 224 926 523 guts 0;
#X obj 385 92 array define \$0-harmonicsIDs 16;
#X obj 385 114 array define \$0-harmonicsAmps 16;
#X obj 171 166 loadbang;
#N canvas 0 23 450 300 fundamentalWaveforms 0;
#X msg 135 55 16;
#X obj 135 79 until;
#X obj 135 31 t b b f, f 13;
#X msg 135 103 1, f 1;
#X obj 135 127 + -1;
#X obj 135 151 int;
#X msg 179 104 -1, f 2;
#X obj 135 175 pack, f 13;
#X msg 135 199 \$2 \$1;
#X obj 135 223 route 0 1 2 3 4 5, f 30;
#N canvas 0 23 659 414 sine 0;
#X obj 281 48 inlet;
#X obj 278 74 t f f, f 9;
#X obj 439 124 expr if($i1 == 0 \, 1 \, 0);
#X obj 239 107 tabread \$0-sliderIDs, f 13;
#X obj 239 146 pack, f 29;
#X msg 239 170 \; \$1-slider_rec \$2;
#X msg 120 169 \; \$1-phase_rec 0;
#X connect 0 0 1 0;
#X connect 1 0 3 0;
#X connect 1 1 2 0;
#X connect 2 0 4 1;
#X connect 3 0 4 0;
#X connect 3 0 6 0;
#X connect 4 0 5 0;
#X restore 93 268 pd sine;
#N canvas 0 23 588 300 saw 0;
#X obj 216 44 inlet;
#X obj 213 70 t f f, f 9;
#X obj 174 103 tabread \$0-sliderIDs, f 13;
#X obj 174 142 pack, f 29;
#X msg 174 166 \; \$1-slider_rec \$2;
#X obj 374 120 expr 1/($f1 + 1);
#X msg 48 156 \; \$1-phase_rec 0;
#X connect 0 0 1 0;
#X connect 1 0 2 0;
#X connect 1 1 5 0;
#X connect 2 0 3 0;
#X connect 2 0 6 0;
#X connect 3 0 4 0;
#X connect 5 0 3 1;
#X restore 152 268 pd saw;
#N canvas 0 23 732 300 square 0;
#X obj 291 38 inlet;
#X obj 288 64 t f f, f 9;
#X obj 249 97 tabread \$0-sliderIDs, f 13;
#X obj 249 136 pack, f 29;
#X msg 249 160 \; \$1-slider_rec \$2;
#X obj 449 114 expr if($f1%2 ==0 \, 1/($f1 + 1) \, 0);
#X msg 120 169 \; \$1-phase_rec 0;
#X connect 0 0 1 0;
#X connect 1 0 2 0;
#X connect 1 1 5 0;
#X connect 2 0 3 0;
#X connect 2 0 6 0;
#X connect 3 0 4 0;
#X connect 5 0 3 1;
#X restore 203 268 pd square;
#N canvas 572 23 708 489 tri 0;
#X obj 38 23 inlet;
#X obj 37 167 tabread \$0-sliderIDs, f 13;
#X obj 37 295 pack, f 29;
#X msg 37 319 \; \$1-slider_rec \$2;
#X obj 295 129 t f f;
#X obj 295 153 *;
#X obj 237 184 expr if($f1%2 ==0 \, 1/$f2 \, 0), f 18;
#X obj 294 106 + 1;
#X obj 38 49 t f f f f, f 77;
#X obj 521 225 / 2;
#X obj 521 270 % 2;
#X obj 521 318 sel 0 1;
#X obj 521 249 int;
#X obj 521 294 == 1;
#X obj 426 225 tabread \$0-sliderIDs, f 12;
#X obj 426 201 t f f, f 14;
#X obj 521 369 int;
#X obj 315 398 pack, f 30;
#X msg 315 422 \; \$1-phase_rec \$2;
#X msg 521 342 0;
#X msg 554 342 1;
#X obj 315 374 f, f 27;
#X obj 315 255 == 0;
#X msg 332 337 \; \$1-phase_rec 0;
#X obj 332 314 f, f 9;
#X obj 315 279 sel 0 1;
#X connect 0 0 8 0;
#X connect 1 0 2 0;
#X connect 2 0 3 0;
#X connect 4 0 5 0;
#X connect 4 1 5 1;
#X connect 5 0 6 1;
#X connect 6 0 2 1;
#X connect 6 0 22 0;
#X connect 7 0 4 0;
#X connect 8 0 1 0;
#X connect 8 1 6 0;
#X connect 8 2 7 0;
#X connect 8 3 15 0;
#X connect 9 0 12 0;
#X connect 10 0 13 0;
#X connect 11 0 19 0;
#X connect 11 1 20 0;
#X connect 12 0 10 0;
#X connect 13 0 11 0;
#X connect 14 0 21 1;
#X connect 14 0 24 1;
#X connect 15 0 14 0;
#X connect 15 1 9 0;
#X connect 16 0 17 1;
#X connect 17 0 18 0;
#X connect 19 0 16 0;
#X connect 20 0 16 0;
#X connect 21 0 17 0;
#X connect 22 0 25 0;
#X connect 24 0 23 0;
#X connect 25 0 21 0;
#X connect 25 1 24 0;
#X restore 275 268 pd tri;
#X obj 135 6 r \$0-waveType_snd;
#X connect 0 0 1 0;
#X connect 1 0 3 0;
#X connect 2 0 0 0;
#X connect 2 1 6 0;
#X connect 2 2 7 1;
#X connect 3 0 4 0;
#X connect 4 0 5 0;
#X connect 5 0 4 1;
#X connect 5 0 7 0;
#X connect 6 0 4 1;
#X connect 7 0 8 0;
#X connect 8 0 9 0;
#X connect 9 0 10 0;
#X connect 9 1 11 0;
#X connect 9 2 12 0;
#X connect 9 3 13 0;
#X connect 14 0 2 0;
#X restore 177 81 pd fundamentalWaveforms;
#X obj 171 211 s \$0-freq_rec;
#N canvas 0 23 480 395 synth 0;
#X obj 160 159 r \$0-freq_snd;
#X msg 160 185 all freq \$1;
#X obj 9 8 r \$0-disp;
#X obj 82 85 t b b;
#X obj 114 135 t b f;
#X msg 114 159 1, f 1;
#X obj 114 183 /;
#X obj 114 261 *~, f 7;
#X msg 114 207 \$1 5;
#X obj 114 232 line~;
#X obj 82 32 t b;
#X obj 82 56 del 50;
#X obj 82 8 r \$0-freq_snd;
#X obj 114 110 array sum \$0-harmonicsAmps;
#X obj 160 208 clone harmonic~ 16 \$0, f 19;
#X obj 321 210 r \$1-note;
#X obj 321 258 line~;
#X obj 114 287 *~, f 30;
#X obj 114 324 throw~ \$1-outL;
#X obj 227 324 throw~ \$1-outR;
#X msg 321 234 \$1 50;
#X connect 0 0 1 0;
#X connect 1 0 14 0;
#X connect 2 0 3 0;
#X connect 3 1 13 0;
#X connect 4 0 5 0;
#X connect 4 1 6 1;
#X connect 5 0 6 0;
#X connect 6 0 8 0;
#X connect 7 0 17 0;
#X connect 8 0 9 0;
#X connect 9 0 7 0;
#X connect 10 0 11 0;
#X connect 11 0 3 0;
#X connect 12 0 10 0;
#X connect 13 0 4 0;
#X connect 14 0 7 1;
#X connect 15 0 20 0;
#X connect 16 0 17 1;
#X connect 17 0 18 0;
#X connect 17 0 19 0;
#X connect 20 0 16 0;
#X restore 85 80 pd synth;
#X obj 243 167 r reset;
#X obj 243 190 s \$0-waveType_rec;
#X msg 171 189 200;
#X obj 481 196 r \$1-note;
#X obj 481 243 sel 0 1, f 18;
#X obj 481 219 > 0;
#X obj 481 310 s \$0-bg_rec;
#X msg 542 267 color 13 22, f 5;
#X msg 481 267 color 1 22, f 5;
#X obj 385 48 array define \$0-sliderIDs 16;
#X obj 385 70 array define \$0-ovrtnsliderIDs 16;
#N canvas 0 23 728 400 amplitudes 0;
#X obj 20 21 harmSlider 0 \$0;
#X obj 57 21 harmSlider 1 \$0;
#X obj 94 21 harmSlider 2 \$0;
#X obj 168 21 harmSlider 4 \$0;
#X obj 205 21 harmSLider 5 \$0;
#X obj 242 21 harmSLider 6 \$0;
#X obj 279 21 harmSLider 7 \$0;
#X obj 131 21 harmSlider 3 \$0;
#X obj 316 21 harmSlider 8 \$0;
#X obj 353 21 harmSlider 9 \$0;
#X obj 390 21 harmSlider 10 \$0;
#X obj 427 21 harmSlider 11 \$0;
#X obj 464 21 harmSlider 12 \$0;
#X obj 501 21 harmSlider 13 \$0;
#X obj 538 21 harmSlider 14 \$0;
#X obj 575 21 harmSlider 15 \$0;
#X obj 48 231 vradio 15 1 1 4 \$0-waveType_snd \$0-waveType_rec empty
0 -8 0 10 -262144 -1 -1 1;
#X text 64 228 sine;
#X text 145 243 <---- change between fundamental waveforms here;
#X text 188 259 Note how much the waveform changes as you change the
frequency content!!!!;
#X text 65 244 sawtooth;
#X text 64 260 square;
#X text 64 275 triangle;
#X restore 198 305 pd amplitudes;
#X obj 699 19 r \$0-reset_all_sliders_snd;
#X msg 699 43 16;
#X obj 699 104 until;
#X msg 699 128 1, f 2;
#X obj 699 152 + -1;
#X obj 699 176 int;
#X obj 699 67 t f b, f 6;
#X msg 742 128 -1, f 2;
#X obj 699 200 tabread \$0-ovrtnsliderIDs;
#X msg 699 224 \; \$1-slider_rec 0.5;
#X connect 2 0 8 0;
#X connect 6 0 8 0;
#X connect 6 0 7 0;
#X connect 8 0 4 0;
#X connect 9 0 11 0;
#X connect 10 0 14 0;
#X connect 10 1 13 0;
#X connect 11 0 10 0;
#X connect 13 0 12 0;
#X connect 14 0 12 0;
#X connect 18 0 19 0;
#X connect 19 0 24 0;
#X connect 20 0 21 0;
#X connect 21 0 22 0;
#X connect 22 0 23 0;
#X connect 23 0 22 1;
#X connect 23 0 26 0;
#X connect 24 0 20 0;
#X connect 24 1 25 0;
#X connect 25 0 22 1;
#X connect 26 0 27 0;
#X restore 501 412 pd guts;
#X obj 13 98 cnv 15 190 16 empty \$0-bg_rec empty 20 12 0 14 -166441
-66577 0;
#X floatatom 13 97 5 0 0 1 fundamental_(Hz) #0-freq_rec #0-freq_snd
;
#X text 81 288 Press & hold the SPACEBAR to trigger the note;
#X obj 13 115 ovrtnSlider 1 \$0;
#X obj 87 115 ovrtnSlider 3 \$0;
#X obj 50 115 ovrtnSlider 2 \$0;
#X obj 124 115 ovrtnSlider 4 \$0;
#X obj 161 115 ovrtnSlider 5 \$0;
#X obj 198 115 ovrtnSlider 6 \$0;
#X obj 235 115 ovrtnSlider 7 \$0;
#X obj 272 115 ovrtnSlider 8 \$0;
#X obj 309 115 ovrtnSlider 9 \$0;
#X obj 346 115 ovrtnSlider 10 \$0;
#X obj 383 115 ovrtnSlider 11 \$0;
#X obj 420 115 ovrtnSlider 12 \$0;
#X obj 457 115 ovrtnSlider 13 \$0;
#X obj 494 115 ovrtnSlider 14 \$0;
#X obj 531 115 ovrtnSlider 15 \$0;
#X text 81 334 Note how different the timbres created are from the
waveeforms created by harmonics (integer multiples of the fundamental)
;
#X text 80 307 Use the sliders above to change thefrequency of each
overtone;
#X text 90 2 Overtones are non-integer (e.g. fractional/decimal) multiples
of the fundamental.;
#X text 93 40 This example takes a simple sawtooth waveform \, and
allows you to change the frequency of each overtone (NOTE: The fundamental
is set using the number box in the top left);
#X obj 205 99 bng 15 250 50 0 \$0-reset_all_sliders_snd empty reset_all_sliders
17 7 0 10 -262144 -1 -1;
#X obj 32 408 ovrtnSlider 0 \$0;
#X coords 0 -1 1 1 610 390 2 1 1;
