#N canvas 88 434 468 268 12;
#X obj 10 30 vsl 15 128 0 1 0 1 \$0-slider_snd \$0-slider_rec empty
0 -9 0 10 -228856 -1 -1 6350 1;
#N canvas 290 23 235 246 internalDisplayLogic 0;
#X obj 51 61 loadbang;
#X obj 51 84 f \$1;
#X obj 51 156 s \$0-voiceN_rec;
#X obj 51 108 + 1;
#X obj 117 62 r reset;
#X msg 51 133 symbol ov\$1;
#X connect 0 0 1 0;
#X connect 1 0 3 0;
#X connect 3 0 5 0;
#X connect 4 0 1 0;
#X connect 5 0 2 0;
#X restore 211 106 pd internalDisplayLogic;
#N canvas 0 23 531 300 load 0;
#X obj 157 4 loadbang;
#X obj 279 97 list \$0 \$1;
#X obj 157 123 s \$0-slider_rec;
#X obj 279 58 del 100;
#X obj 225 4 r reset;
#X obj 279 121 tabwrite \$2-ovrtnsliderIDs;
#X msg 157 97 0.5;
#X obj 48 58 r \$0-reset_snd;
#X connect 0 0 1 0;
#X connect 0 0 3 0;
#X connect 0 0 6 0;
#X connect 1 0 5 0;
#X connect 3 0 1 0;
#X connect 4 0 3 0;
#X connect 4 0 1 0;
#X connect 4 0 6 0;
#X connect 6 0 2 0;
#X connect 7 0 6 0;
#X restore 211 129 pd load;
#N canvas 625 61 582 313 messagesToOutside 0;
#X text 339 190 voice #;
#X obj 480 191 f;
#X text 506 190 value;
#X obj 301 191 f \$2;
#X obj 301 218 pack 0 \$1 0, f 26;
#X obj 301 166 t b b f, f 26;
#X obj 390 191 f \$1;
#X obj 51 44 r \$0-slider_snd;
#X obj 31 152 s \$2-disp;
#X text 222 190 parent ID;
#X msg 301 241 \; \$1-fmod-\$2 \$3;
#X obj 301 94 * 2;
#X obj 301 118 - 1;
#X obj 51 67 t b b f, f 36;
#X obj 155 113 s \$2-resetPhase;
#X obj 301 140 expr pow(2 \, $f1/12);
#X connect 1 0 4 2;
#X connect 3 0 4 0;
#X connect 4 0 10 0;
#X connect 5 0 3 0;
#X connect 5 1 6 0;
#X connect 5 2 1 0;
#X connect 6 0 4 1;
#X connect 7 0 13 0;
#X connect 11 0 12 0;
#X connect 12 0 15 0;
#X connect 13 0 8 0;
#X connect 13 1 14 0;
#X connect 13 2 11 0;
#X connect 15 0 5 0;
#X restore 211 153 pd messagesToOutside;
#X text 248 196 sjf \, SAE London 2020;
#X obj 10 10 cnv 15 37 18 empty empty empty 20 12 0 14 -204800 -66577
0;
#X symbolatom 10 10 5 0 0 0 - #0-voiceN_rec #0-voiceN_snd;
#X obj 11 161 bng 10 250 50 0 \$0-reset_snd empty reset 10 5 0 9 -262144
-1 -1;
#X text 27 84 --;
#X coords 0 -1 1 1 37 169 2 10 10;
