#N canvas 0 23 1036 545 12;
#X obj 123 130 vsl 15 128 200 1000 1 1 \$0-freq_snd \$0-freq_rec frequency_(Hz)
0 -9 0 10 -166441 -262144 -1 0 1;
#X text 222 173 Press & hold the SPACEBAR to trigger the note;
#N canvas 396 35 1061 350 synth 0;
#X obj 88 67 r \$0-freq_snd;
#X obj 315 168 r \$1-note;
#X obj 315 215 line~;
#X obj 90 215 *~;
#X obj 56 294 throw~ \$1-outL;
#X obj 169 295 throw~ \$1-outR;
#X obj 88 107 osc~ 200;
#X msg 315 191 \$1 25;
#X obj 481 119 sel 0 1;
#X obj 481 95 > 0;
#X msg 444 160 color 1 0 22;
#X msg 542 159 color 1 13 22;
#X obj 482 69 r \$1-note;
#X obj 498 201 s \$0-freq_rec;
#X obj 701 65 r \$0-freq_snd;
#X obj 701 89 change;
#X obj 701 113 t b f;
#X msg 701 137 1;
#X obj 701 161 /;
#X obj 701 185 s \$0-period_rec;
#X obj 844 61 r \$0-period_rec;
#X obj 844 85 change;
#X obj 844 109 t f f;
#X obj 910 125 t b f;
#X msg 910 149 1;
#X obj 910 173 /;
#X obj 910 197 s \$0-freq_rec;
#X obj 780 152 s \$0-periodms_rec;
#X obj 780 130 * 1000;
#X obj 579 125 s \$0-freqSym_rec;
#X msg 579 101 set \$1Hz;
#X obj 958 175 r reset;
#X connect 0 0 6 0;
#X connect 1 0 7 0;
#X connect 2 0 3 1;
#X connect 3 0 4 0;
#X connect 3 0 5 0;
#X connect 6 0 3 0;
#X connect 7 0 2 0;
#X connect 8 0 10 0;
#X connect 8 1 11 0;
#X connect 9 0 8 0;
#X connect 10 0 13 0;
#X connect 11 0 13 0;
#X connect 12 0 9 0;
#X connect 14 0 15 0;
#X connect 14 0 30 0;
#X connect 15 0 16 0;
#X connect 16 0 17 0;
#X connect 16 1 18 1;
#X connect 17 0 18 0;
#X connect 18 0 19 0;
#X connect 20 0 21 0;
#X connect 21 0 22 0;
#X connect 22 0 28 0;
#X connect 22 1 23 0;
#X connect 23 0 24 0;
#X connect 23 1 25 1;
#X connect 24 0 25 0;
#X connect 25 0 26 0;
#X connect 28 0 27 0;
#X connect 30 0 29 0;
#X connect 31 0 26 0;
#X restore 710 29 pd synth;
#X text 155 190 <------- change this slider and notice how the sound
changes;
#X text 118 79 These values are inversely proportional such that:;
#X text 119 38 While frequency (f) is how often the waveform repeats
\, Period (T) is the length of time it takes for each repetition;
#X floatatom 123 264 10 0 0 0 Period_(s) #0-period_rec #0-period_snd
;
#X floatatom 123 285 5 0 0 0 Period_(ms) #0-periodms_rec #0-periodms_snd
;
#X text 206 95 1/f = T <---> f = 1/T;
#X symbolatom 140 243 10 0 0 0 - #0-freqSym_rec -;
#X text 165 283 (We often discuss timings related to audio using millisecond
\, i.e. 1/1000 seconds \, for simplicity);
#X coords 0 -1 1 1 610 390 2 10 10;
