#N canvas 0 23 1237 545 12;
#N canvas 507 41 773 350 synth 0;
#X obj 184 280 r \$1-note;
#X obj 184 327 line~;
#X obj 87 307 *~;
#X obj 53 386 throw~ \$1-outL;
#X obj 166 387 throw~ \$1-outR;
#X obj 80 239 osc~ 200;
#X msg 184 303 \$1 25;
#X obj 574 134 sel 0 1;
#X obj 574 110 > 0;
#X msg 537 175 color 1 0 22;
#X msg 635 174 color 1 13 22;
#X obj 575 84 r \$1-note;
#X obj 591 216 s \$0-pitch_rec;
#X obj 83 129 r reset;
#X msg 83 153 200;
#X obj 181 241 osc~ 200;
#X obj 176 160 t b f;
#X msg 176 184 0;
#X obj 177 138 wrap;
#X obj 177 19 r \$0-phase_snd;
#X obj 177 114 / 360;
#X floatatom 242 185 5 0 0 0 - - -;
#X obj 177 43 t b f, f 8;
#X obj 177 67 del 10;
#X obj 177 91 f, f 8;
#X obj 184 351 *~ 0.5;
#X obj 36 102 r \$0-freq_snd;
#X obj 284 205 r \$0-freq_snd;
#X connect 0 0 6 0;
#X connect 1 0 25 0;
#X connect 2 0 3 0;
#X connect 2 0 4 0;
#X connect 5 0 2 0;
#X connect 6 0 1 0;
#X connect 7 0 9 0;
#X connect 7 1 10 0;
#X connect 8 0 7 0;
#X connect 9 0 12 0;
#X connect 10 0 12 0;
#X connect 11 0 8 0;
#X connect 13 0 14 0;
#X connect 14 0 5 0;
#X connect 14 0 15 0;
#X connect 15 0 2 0;
#X connect 16 0 17 0;
#X connect 16 1 15 1;
#X connect 16 1 21 0;
#X connect 17 0 5 1;
#X connect 18 0 16 0;
#X connect 19 0 22 0;
#X connect 20 0 18 0;
#X connect 22 0 23 0;
#X connect 22 1 24 1;
#X connect 23 0 24 0;
#X connect 24 0 20 0;
#X connect 25 0 2 1;
#X connect 26 0 5 0;
#X connect 27 0 15 0;
#X restore 723 58 pd synth;
#X text 42 59 Compression (+);
#X text 38 88 Rarefaction (-);
#X obj 150 55 cnv 15 298 29 empty empty empty 20 12 0 14 -261234 -66577
0;
#X obj 150 85 cnv 15 298 29 empty empty empty 20 12 0 14 -228856 -66577
0;
#N canvas 0 23 450 278 (subpatch) 0;
#X array \$0-scope 67 float 1;
#A 0 -0.0980171 0 0.0980171 0.19509 0.290284 0.382683 0.471396 0.55557
0.634393 0.707106 0.77301 0.831469 0.881921 0.923879 0.95694 0.980785
0.995185 1 0.995185 0.980786 0.956941 0.92388 0.881922 0.831471 0.773012
0.707108 0.634395 0.555572 0.471399 0.382686 0.290287 0.195093 0.0980197
2.65359e-06 -0.0980144 -0.195088 -0.290282 -0.382681 -0.471394 -0.555568
-0.634391 -0.707104 -0.773008 -0.831468 -0.88192 -0.923878 -0.956939
-0.980785 -0.995184 -1 -0.995185 -0.980786 -0.956942 -0.923881 -0.881923
-0.831472 -0.773013 -0.70711 -0.634397 -0.555574 -0.471401 -0.382688
-0.29029 -0.195095 -0.0980223 -5.30718e-06 0.0980118;
#X coords 0 1 66 -1 300 60 2 0 0;
#X restore 149 54 graph;
#X text 144 112 0º;
#X text 437 112 360º;
#X text 282 112 180º;
#X text 212 112 90º;
#X text 361 112 270º;
#X text 225 220 Ø = ∆t x 360 x f;
#X text 101 148 • The relationship or interaction between different
sound waves or audio signals;
#X text 129 182 The amount of phase shift between two sine waves is
dictated by arrival time differences (∆t) and frequency (f).;
#X obj 662 181 r \$0-dts_snd;
#X obj 662 205 * 1000;
#X obj 662 229 change;
#X obj 662 282 s \$0-dtms_rec;
#X obj 786 231 change;
#X obj 786 207 / 1000;
#X obj 786 183 r \$0-dtms_snd;
#X obj 786 304 s \$0-dts_rec;
#X obj 744 477 s \$0-phase_rec;
#X obj 744 358 r \$0-dts_snd;
#X obj 744 382 * 360;
#X obj 744 406 *, f 19;
#X obj 881 320 r \$0-freq_snd;
#X obj 881 344 t b f;
#X obj 786 255 clip 0 1;
#X obj 872 30 r reset;
#X obj 872 81 s \$0-freq_rec;
#X obj 908 439 / 360;
#X obj 908 490 s \$0-phaseC_rec;
#X msg 908 463 set \$1_Cycles;
#X obj 977 79 s \$0-dtms_rec;
#X msg 872 54 200;
#X obj 744 430 change;
#X obj 1030 199 / 360;
#X obj 1030 270 / 1;
#X obj 1083 203 r \$0-freq_snd;
#X obj 1083 227 t b f;
#X obj 1030 175 r \$0-phase_snd;
#X obj 1030 342 s \$0-dts_rec;
#X msg 977 55 2.5;
#X text 152 20 Phase (Ø) is used to describe:;
#X obj 150 38 cnv 15 100 15 empty empty empty 20 12 0 14 -262144 -66577
0;
#X text 140 35 • The different points along a waveformʼs cycle;
#X text 119 347 Press & hold the SPACEBAR to trigger the note;
#X text 119 366 Change the phase and then trigger another note \, note
how the amplitude changes;
#X obj 130 245 cnv 15 350 100 empty \$0-phaseCanvas empty 20 12 0 14
-166441 -66577 0;
#X floatatom 249 254 5 200 2000 0 frequency_(Hz) #0-freq_rec #0-freq_snd
;
#X floatatom 415 253 5 0 1 0 delay_time_(s) #0-dts_rec #0-dts_snd;
#X floatatom 415 271 5 0 1000 0 delay_time_(ms) #0-dtms_rec #0-dtms_snd
;
#X symbolatom 312 322 15 0 0 0 - #0-phaseC_rec -;
#X floatatom 312 304 5 0 0 0 Phase_Shift #0-phase_rec #0-phase_snd
;
#X text 348 303 º;
#N canvas 0 23 450 300 del 0;
#X obj 37 37 inlet;
#X obj 37 61 t b f, f 12;
#X obj 37 85 del 100;
#X obj 37 109 f, f 12;
#X obj 37 133 outlet;
#X connect 0 0 1 0;
#X connect 1 0 2 0;
#X connect 1 1 3 1;
#X connect 2 0 3 0;
#X connect 3 0 4 0;
#X restore 662 253 pd del;
#N canvas 0 23 450 300 del 0;
#X obj 37 37 inlet;
#X obj 37 61 t b f, f 12;
#X obj 37 85 del 100;
#X obj 37 109 f, f 12;
#X obj 37 133 outlet;
#X connect 0 0 1 0;
#X connect 1 0 2 0;
#X connect 1 1 3 1;
#X connect 2 0 3 0;
#X connect 3 0 4 0;
#X restore 786 278 pd del;
#N canvas 0 23 450 300 del 0;
#X obj 37 37 inlet;
#X obj 37 61 t b f, f 12;
#X obj 37 85 del 100;
#X obj 37 109 f, f 12;
#X obj 37 133 outlet;
#X connect 0 0 1 0;
#X connect 1 0 2 0;
#X connect 1 1 3 1;
#X connect 2 0 3 0;
#X connect 3 0 4 0;
#X restore 744 452 pd del;
#N canvas 0 23 450 300 del 0;
#X obj 37 37 inlet;
#X obj 37 61 t b f, f 12;
#X obj 37 85 del 100;
#X obj 37 109 f, f 12;
#X obj 37 133 outlet;
#X connect 0 0 1 0;
#X connect 1 0 2 0;
#X connect 1 1 3 1;
#X connect 2 0 3 0;
#X connect 3 0 4 0;
#X restore 1030 294 pd del;
#X obj 1030 318 change;
#X obj 641 14 r \$1-note;
#X obj 641 38 > 0;
#X obj 641 62 sel 0 1;
#X msg 641 86 color 1;
#X obj 641 110 s \$0-phaseCanvas;
#X msg 705 87 color 13;
#X connect 14 0 15 0;
#X connect 15 0 16 0;
#X connect 16 0 56 0;
#X connect 18 0 28 0;
#X connect 19 0 18 0;
#X connect 20 0 19 0;
#X connect 23 0 24 0;
#X connect 24 0 25 0;
#X connect 25 0 31 0;
#X connect 25 0 36 0;
#X connect 26 0 27 0;
#X connect 27 0 25 0;
#X connect 27 1 25 1;
#X connect 28 0 57 0;
#X connect 29 0 35 0;
#X connect 29 0 43 0;
#X connect 31 0 33 0;
#X connect 33 0 32 0;
#X connect 35 0 30 0;
#X connect 36 0 58 0;
#X connect 37 0 38 0;
#X connect 38 0 59 0;
#X connect 39 0 40 0;
#X connect 40 0 38 0;
#X connect 40 1 38 1;
#X connect 41 0 37 0;
#X connect 43 0 34 0;
#X connect 56 0 17 0;
#X connect 57 0 21 0;
#X connect 58 0 22 0;
#X connect 59 0 60 0;
#X connect 60 0 42 0;
#X connect 61 0 62 0;
#X connect 62 0 63 0;
#X connect 63 0 64 0;
#X connect 63 1 66 0;
#X connect 64 0 65 0;
#X connect 66 0 65 0;
#X coords 0 -1 1 1 610 390 2 10 10;
