#N canvas 0 23 1036 545 12;
#N canvas 495 80 773 350 synth 0;
#X obj 104 139 r \$1-note;
#X obj 104 186 line~;
#X obj 90 215 *~;
#X obj 56 294 throw~ \$1-outL;
#X obj 169 295 throw~ \$1-outR;
#X msg 104 162 \$1 25;
#X obj 481 119 sel 0 1;
#X obj 481 95 > 0;
#X msg 444 160 color 1 0 22;
#X msg 542 159 color 1 13 22;
#X obj 482 69 r \$1-note;
#X obj 657 163 r reset;
#N canvas 484 129 796 433 synth 0;
#X obj 106 94 rpole~;
#X obj 106 69 rzero_rev~;
#X obj 106 143 rpole~;
#X obj 106 118 rzero_rev~;
#X obj 106 191 rpole~;
#X obj 106 166 rzero_rev~;
#X obj 106 240 rpole~;
#X obj 106 215 rzero_rev~;
#X obj 83 317 +~;
#X obj 261 186 phasor~ 0.3;
#X obj 261 218 expr~ 1 - 0.03 - 0.6*abs($v1-0.5)*abs($v1-0.5);
#X obj 259 63 r \$0-rate_snd;
#X obj 106 289 *~, f 11;
#X obj 241 293 r \$0-depth_snd;
#X msg 241 317 \$1 5;
#X obj 241 341 line~;
#X obj 83 341 outlet~;
#X text 470 351 taken from PD audio examples;
#X floatatom 304 89 5 0 0 0 - - -;
#N canvas 0 23 450 300 sampPlayer 0;
#X obj 29 38 r \$0-pbRate;
#X obj 29 62 phasor~;
#X obj 29 86 *~, f 12;
#X obj 29 110 +~ 1;
#X obj 29 134 tabread4~ \$0-sample;
#X obj 124 54 r \$0-sampSize;
#X obj 29 158 outlet~;
#N canvas 0 23 785 581 sampLoad 0;
#X obj 305 147 openpanel;
#X obj 305 126 bng 15 250 50 0 empty empty empty 17 7 0 10 -262144
-1 -1;
#X obj 305 169 pack s \$0;
#X msg 305 193 read -resize \$1 \$2-sample;
#X obj 305 217 soundfiler;
#X obj 465 49 loadbang;
#X obj 536 48 r reset;
#X msg 533 116 16;
#X obj 533 140 s \$0-bd_rec;
#X obj 489 87 bng 15 250 50 0 empty empty empty 17 7 0 10 -262144 -1
-1;
#X obj 301 483 array define \$0-sample;
#X floatatom 305 241 10 0 0 0 - - -;
#X obj 305 264 / 44100;
#X obj 305 288 t b f;
#X msg 305 312 1;
#X obj 305 336 /;
#X floatatom 305 360 5 0 0 0 - - -;
#X obj 305 383 s \$0-pbRate;
#X obj 156 266 - 2;
#X obj 156 290 s \$0-sampSize;
#X msg 424 132 AGTR.aif;
#X connect 0 0 2 0;
#X connect 1 0 0 0;
#X connect 2 0 3 0;
#X connect 3 0 4 0;
#X connect 4 0 11 0;
#X connect 5 0 9 0;
#X connect 6 0 9 0;
#X connect 7 0 8 0;
#X connect 9 0 7 0;
#X connect 9 0 20 0;
#X connect 11 0 12 0;
#X connect 11 0 18 0;
#X connect 12 0 13 0;
#X connect 13 0 14 0;
#X connect 13 1 15 1;
#X connect 14 0 15 0;
#X connect 15 0 16 0;
#X connect 16 0 17 0;
#X connect 18 0 19 0;
#X connect 20 0 2 0;
#X restore 272 29 pd sampLoad;
#X connect 0 0 1 0;
#X connect 1 0 2 0;
#X connect 2 0 3 0;
#X connect 3 0 4 0;
#X connect 4 0 6 0;
#X connect 5 0 2 1;
#X restore 33 14 pd sampPlayer;
#X connect 0 0 3 0;
#X connect 1 0 0 0;
#X connect 2 0 5 0;
#X connect 3 0 2 0;
#X connect 4 0 7 0;
#X connect 5 0 4 0;
#X connect 6 0 12 0;
#X connect 7 0 6 0;
#X connect 8 0 16 0;
#X connect 9 0 10 0;
#X connect 10 0 1 1;
#X connect 10 0 0 1;
#X connect 10 0 3 1;
#X connect 10 0 2 1;
#X connect 10 0 5 1;
#X connect 10 0 4 1;
#X connect 10 0 7 1;
#X connect 10 0 6 1;
#X connect 11 0 9 0;
#X connect 11 0 18 0;
#X connect 12 0 8 1;
#X connect 13 0 14 0;
#X connect 14 0 15 0;
#X connect 15 0 12 1;
#X connect 19 0 1 0;
#X connect 19 0 8 0;
#X restore 77 17 pd synth;
#X obj 498 201 s \$0-rate_rec;
#X obj 570 64 tgl 15 0 empty empty empty 17 7 0 10 -262144 -1 -1 0
1;
#X obj 77 41 *~ 0.4;
#X obj 508 236 s \$0-depth_rec;
#X obj 249 20 r reset;
#X obj 192 71 s \$0-rate_rec;
#X msg 301 45 0.3;
#X obj 301 69 s \$0-depth_rec;
#X msg 192 47 0.5;
#X connect 0 0 5 0;
#X connect 1 0 2 1;
#X connect 2 0 3 0;
#X connect 2 0 4 0;
#X connect 5 0 1 0;
#X connect 6 0 8 0;
#X connect 6 1 9 0;
#X connect 7 0 6 0;
#X connect 8 0 13 0;
#X connect 8 0 16 0;
#X connect 9 0 13 0;
#X connect 9 0 16 0;
#X connect 10 0 7 0;
#X connect 11 0 13 0;
#X connect 12 0 15 0;
#X connect 14 0 7 0;
#X connect 15 0 2 0;
#X connect 17 0 21 0;
#X connect 17 0 19 0;
#X connect 19 0 20 0;
#X connect 21 0 18 0;
#X restore 723 58 pd synth;
#X text 136 363 Press & hold the SPACEBAR to trigger the note;
#X obj 87 42 cnv 15 450 120 empty empty empty 20 12 0 14 -233017 -66577
0;
#X text 101 64 • A slightly (from about 1ms to 3ms) delayed version
is added to the original signal creating a comb filter. As the delay
time is altered this causes a comb filter to move through the frequency
spectrum.;
#X text 101 126 • A series of notch filters that are swept through
the audio spectrum.;
#X text 101 44 Old style phasing was achieved in one of two ways:;
#X obj 86 219 cnv 15 450 120 empty empty empty 20 12 0 14 -204800 -66577
0;
#X obj 218 274 hsl 128 15 0 2 0 0 \$0-rate_snd \$0-rate_rec rate -2
-8 0 10 -166441 -262144 -1 3175 1;
#X obj 219 314 hsl 128 15 0 1 0 0 \$0-depth_snd \$0-depth_rec depth
-2 -8 0 10 -166441 -262144 -1 3810 1;
#X text 107 221 This example uses a modification of the second method
to create shifting phase cancellations;
#X coords 0 -1 1 1 610 390 2 10 10;
