#N canvas 0 23 1036 545 12;
#X text 269 140 Press & hold the SPACEBAR to trigger the note;
#N canvas 645 167 773 350 synth 0;
#X obj 124 168 r \$1-note;
#X obj 124 215 line~;
#X obj 90 215 *~;
#X obj 56 294 throw~ \$1-outL;
#X obj 169 295 throw~ \$1-outR;
#X obj 88 107 osc~ 200;
#X msg 124 191 \$1 25;
#X obj 481 119 sel 0 1;
#X obj 481 95 > 0;
#X msg 444 160 color 1 0 22;
#X msg 542 159 color 1 13 22;
#X obj 482 69 r \$1-note;
#X obj 498 201 s \$0-pitch_rec;
#X obj 239 78 mtof;
#X obj 239 162 s \$0-frequency_rec;
#X obj 239 8 r \$0-pitch_snd;
#X msg 239 112 set \$1Hz;
#X obj 239 31 + 57;
#N canvas 594 23 776 300 seq 0;
#X obj 102 20 r \$0-majorScale_snd;
#X msg 102 100 1, f 1;
#X obj 102 76 metro 500;
#X obj 103 123 + -1;
#X obj 103 147 int;
#X msg 172 100 -1, f 2;
#X obj 101 245 s \$0-pitch_rec;
#X obj 103 171 % 8;
#X obj 264 152 array define \$0-major 8;
#X msg 240 93 \; \$1-major 0 2 4 5 7 9 11 12;
#X obj 103 44 t f b b, f 20;
#X obj 240 68 f \$0;
#X obj 103 195 tabread \$0-major;
#X connect 0 0 10 0;
#X connect 1 0 3 0;
#X connect 2 0 1 0;
#X connect 3 0 4 0;
#X connect 4 0 3 1;
#X connect 4 0 7 0;
#X connect 5 0 3 1;
#X connect 7 0 12 0;
#X connect 10 0 2 0;
#X connect 10 1 5 0;
#X connect 10 2 11 0;
#X connect 11 0 9 0;
#X connect 12 0 6 0;
#X restore 427 255 pd seq;
#X obj 672 167 r reset;
#X msg 672 190 0;
#X connect 0 0 6 0;
#X connect 1 0 2 1;
#X connect 2 0 3 0;
#X connect 2 0 4 0;
#X connect 5 0 2 0;
#X connect 6 0 1 0;
#X connect 7 0 9 0;
#X connect 7 1 10 0;
#X connect 8 0 7 0;
#X connect 9 0 12 0;
#X connect 10 0 12 0;
#X connect 11 0 8 0;
#X connect 13 0 5 0;
#X connect 13 0 16 0;
#X connect 15 0 17 0;
#X connect 16 0 14 0;
#X connect 17 0 13 0;
#X connect 19 0 20 0;
#X connect 20 0 12 0;
#X restore 723 58 pd synth;
#X text 131 42 The human ear perceives frequency as pitch. The relationship
between pitch and frequency is not linear \, this means that as the
pitch increases the frequency range between each pitch also increases
;
#X obj 15 158 hradio 14 1 1 13 \$0-pitch_snd \$0-pitch_rec pitch 0
-8 0 12 -166441 -262144 -1 0;
#X symbolatom 82 173 16 0 0 0 frequency #0-frequency_rec -;
#X text 202 157 <------- change the pitch and notice how the sound
changes;
#X text 268 172 Note how the frequency changes are NOT linear;
#X obj 18 197 tgl 15 0 \$0-majorScale_snd empty major_scale 17 7 0
10 -262144 -1 -1 0 1;
#X coords 0 -1 1 1 610 390 2 10 10;
