#N canvas 0 23 1036 545 12;
#N canvas 507 167 773 350 guts 0;
#X obj 77 159 throw~ \$1-outL;
#X obj 190 160 throw~ \$1-outR;
#X obj 481 119 sel 0 1;
#X obj 481 95 > 0;
#X msg 444 160 color 1 0 22;
#X msg 550 163 color 1 13 22;
#X obj 482 69 r \$1-note;
#X obj 672 167 r reset;
#X msg 672 190 0;
#X obj 503 261 s \$0-drywet_rec;
#X obj 562 68 tgl 15 0 empty empty empty 17 7 0 10 -262144 -1 -1 0
1;
#X obj 621 264 s \$0-decay_rec;
#X obj 378 262 s \$0-predelay_rec;
#X obj 240 254 s \$0-Xover_rec;
#N canvas 0 23 1010 701 sampler 0;
#X obj 729 237 openpanel;
#X obj 729 216 bng 15 250 50 0 empty empty empty 17 7 0 10 -262144
-1 -1;
#X obj 729 259 pack s \$0;
#X msg 729 283 read -resize \$1 \$2-sample;
#X obj 729 303 soundfiler;
#X obj 763 104 array define \$0-sample;
#X msg 793 202 snare.wav;
#X obj 793 154 loadbang;
#X obj 862 154 r reset;
#X obj 255 141 tabplay~ \$0-sample;
#X obj 255 117 metro 1000;
#X obj 479 338 rev3~ 100 90 3000 20;
#X floatatom 515 269 5 0 0 0 - - -;
#X floatatom 565 269 5 0 0 0 - - -;
#X floatatom 619 269 5 0 0 0 - - -;
#X floatatom 666 269 5 0 0 0 - - -;
#X obj 87 189 t f f, f 12;
#X obj 87 213 t b f;
#X msg 87 237 1;
#X obj 87 261 -;
#X floatatom 87 285 5 0 0 0 - - -;
#X floatatom 147 287 5 0 0 0 - - -;
#X obj 443 419 *~;
#X obj 476 420 *~;
#X obj 260 384 *~;
#X obj 88 158 r \$0-drywet_snd;
#X obj 549 178 r \$0-decay_snd;
#X obj 390 211 r \$0-predelay_snd;
#X obj 390 282 vd~ \$0-predel;
#X obj 292 183 delwrite~ \$0-predel 100;
#X msg 390 235 \$1 5;
#X obj 390 259 line~;
#X obj 598 208 r \$0-Xover_snd;
#X obj 607 127 r \$0-damping_snd;
#X obj 255 93 inlet;
#X obj 519 212 r reset;
#X msg 519 236 100;
#X obj 304 518 outlet~;
#X obj 392 524 outlet~;
#X connect 0 0 2 0;
#X connect 1 0 0 0;
#X connect 2 0 3 0;
#X connect 3 0 4 0;
#X connect 6 0 2 0;
#X connect 7 0 6 0;
#X connect 8 0 6 0;
#X connect 9 0 24 0;
#X connect 9 0 29 0;
#X connect 10 0 9 0;
#X connect 11 0 22 0;
#X connect 11 1 23 0;
#X connect 12 0 11 2;
#X connect 13 0 11 3;
#X connect 14 0 11 4;
#X connect 15 0 11 5;
#X connect 16 0 17 0;
#X connect 16 1 21 0;
#X connect 17 0 18 0;
#X connect 17 1 19 1;
#X connect 18 0 19 0;
#X connect 19 0 20 0;
#X connect 20 0 24 1;
#X connect 21 0 23 1;
#X connect 21 0 22 1;
#X connect 22 0 37 0;
#X connect 23 0 38 0;
#X connect 24 0 37 0;
#X connect 24 0 38 0;
#X connect 25 0 16 0;
#X connect 26 0 13 0;
#X connect 27 0 30 0;
#X connect 28 0 11 0;
#X connect 30 0 31 0;
#X connect 31 0 28 0;
#X connect 32 0 14 0;
#X connect 33 0 15 0;
#X connect 34 0 10 0;
#X connect 35 0 36 0;
#X connect 36 0 12 0;
#X restore 82 128 pd sampler;
#X obj 317 301 s \$0-damping_rec;
#X obj 169 42 > 0;
#X obj 170 16 r \$1-note;
#X obj 195 77 tgl 15 0 empty empty empty 17 7 0 10 -262144 -1 -1 0
1;
#N canvas 481 87 754 300 load 0;
#X obj 219 6 r reset;
#X obj 286 136 s \$0-drywet_rec;
#X obj 405 135 s \$0-decay_rec;
#X obj 161 137 s \$0-predelay_rec;
#X obj 23 129 s \$0-Xover_rec;
#X obj 100 176 s \$0-damping_rec;
#X msg 112 31 100;
#X msg 153 39 70;
#X msg 200 39 40;
#X msg 374 42 70;
#X msg 275 41 0.5;
#X connect 0 0 6 0;
#X connect 0 0 7 0;
#X connect 0 0 8 0;
#X connect 0 0 10 0;
#X connect 0 0 9 0;
#X connect 6 0 4 0;
#X connect 7 0 5 0;
#X connect 8 0 3 0;
#X connect 9 0 2 0;
#X connect 10 0 1 0;
#X restore 320 25 pd load;
#X connect 2 0 4 0;
#X connect 2 1 5 0;
#X connect 3 0 2 0;
#X connect 4 0 9 0;
#X connect 4 0 11 0;
#X connect 4 0 12 0;
#X connect 4 0 13 0;
#X connect 4 0 15 0;
#X connect 5 0 9 0;
#X connect 5 0 11 0;
#X connect 5 0 12 0;
#X connect 5 0 13 0;
#X connect 5 0 15 0;
#X connect 6 0 3 0;
#X connect 7 0 8 0;
#X connect 10 0 3 0;
#X connect 14 0 0 0;
#X connect 14 1 1 0;
#X connect 16 0 14 0;
#X connect 16 0 18 0;
#X connect 17 0 16 0;
#X restore 724 34 pd guts;
#X obj 94 15 cnv 15 450 110 empty empty empty 20 12 0 14 -233017 -66577
0;
#X text 105 80 In the digital realm \, this is achieved through the
generation of a series of delays / repetitions that are not individually
discernable.;
#X text 105 15 Reverb (from a signal processor) is defined as an effect
that simulates the reflective qualities of an acoustic environment
(think of the difference in sound between clapping in your bedroom
and clapping in a cathedral!).;
#X obj 34 138 cnv 15 580 240 empty empty empty 20 12 0 14 -220989 -66577
0;
#X obj 61 189 hsl 128 15 0 1 0 0 \$0-drywet_snd \$0-drywet_rec Dry/Wet
-2 -8 0 10 -166441 -262144 -1 6350 1;
#X obj 61 224 hsl 128 15 40 100 0 0 \$0-decay_snd \$0-decay_rec Decay
-2 -8 0 10 -166441 -262144 -1 6350 1;
#X obj 61 259 hsl 128 15 0 100 0 0 \$0-predelay_snd \$0-predelay_rec
Pre_Delay -2 -8 0 10 -166441 -262144 -1 5080 1;
#X text 199 222 Length of reverb (related to Size of room);
#X text 199 186 Mix of original (dry) signal to effect (wet);
#X text 199 254 The time between the direct sound and the first early
reflection.;
#X obj 46 293 cnv 15 560 80 empty empty empty 20 12 0 14 -233017 -66577
0;
#X obj 60 312 hsl 128 15 0 5000 0 0 \$0-Xover_snd \$0-Xover_rec Crossover_Frequency
-2 -8 0 10 -166441 -262144 -1 254 1;
#X obj 60 347 hsl 128 15 0 100 0 0 \$0-damping_snd \$0-damping_rec
Damping -2 -8 0 10 -166441 -262144 -1 8890 1;
#X text 195 305 Crossover - The frequency that separates high and low
frequencies.;
#X text 195 345 Amount of filtering applied to frequencies above crossover
;
#X text 122 139 This is a simple example designed to demonstrate some
of the most common features common to digital reverb plug-ins;
#X text 136 378 Press & hold the SPACEBAR to trigger the sound;
#X coords 0 -1 1 1 610 390 2 10 10;
