#N struct 1754-rectangle float x float c;
#N struct 1754-pixel float x0 float y0 float x1 float y1;
#N canvas 41 111 1239 663 12;
#X obj 41 442 unpack s f f;
#X floatatom 89 491 5 0 0 0 - - -;
#X floatatom 130 491 5 0 0 0 - - -;
#X symbolatom 12 491 10 0 0 0 - - -;
#X obj 12 520 bng 15 250 50 0 empty empty empty 17 7 0 10 -262144 -1
-1;
#X obj 147 575 s \$0-amp_snd;
#X obj 86 606 s \$0-freq_snd;
#X obj 61 -96 bng 15 250 50 0 empty empty empty 17 7 0 10 -262144 -1
-1;
#X obj 61 -126 r \$1-reset;
#X obj 130 514 / 200;
#X obj 89 514 / 200;
#X obj 89 538 * 900;
#X obj 89 562 + 100;
#N canvas 422 23 858 446 synth 0;
#X floatatom 330 69 5 0 0 0 - - -;
#X obj 182 27 r \$0-freq_snd;
#X obj 407 275 r \$1-note;
#X obj 407 323 line~;
#X obj 182 323 *~;
#X obj 296 152 r \$0-amp_snd;
#X obj 184 223 *~;
#X obj 159 370 throw~ \$1-outL;
#X obj 271 374 throw~ \$1-outR;
#X obj 296 200 line~ 0.5;
#X obj 183 118 osc~ 200;
#X msg 407 299 \$1 25;
#X obj 585 161 r \$1-note;
#X obj 583 218 sel 0 1;
#X obj 583 194 > 0;
#X obj 600 300 s \$0-bg_rec;
#X msg 644 259 color 13 22;
#X msg 546 259 color 1 22;
#X obj 183 79 line~ 200;
#X msg 181 52 \$1 15;
#X msg 296 176 \$1 15;
#X connect 1 0 0 0;
#X connect 1 0 19 0;
#X connect 2 0 11 0;
#X connect 3 0 4 1;
#X connect 4 0 7 0;
#X connect 4 0 8 0;
#X connect 5 0 20 0;
#X connect 6 0 4 0;
#X connect 9 0 6 1;
#X connect 10 0 6 0;
#X connect 11 0 3 0;
#X connect 12 0 14 0;
#X connect 13 0 17 0;
#X connect 13 1 16 0;
#X connect 14 0 13 0;
#X connect 16 0 15 0;
#X connect 17 0 15 0;
#X connect 18 0 10 0;
#X connect 19 0 18 0;
#X connect 20 0 9 0;
#X restore 425 441 pd synth;
#X text 134 258 ------ FREQUENCY ------;
#X text 96 64 |;
#X text 96 79 |;
#X text 96 95 |;
#X text 96 112 |;
#X text 40 130 AMPLITUDE;
#X text 95 149 |;
#X text 95 164 |;
#X text 95 180 |;
#X text 95 197 |;
#X text 142 338 Press & hold the SPACEBAR to trigger the note;
#X obj 109 303 s \$0-2bg;
#X obj 806 170 r \$0-2bg;
#X obj 806 207 unpack s 0 0;
#X obj 806 308 t b;
#X obj 806 332 f \$0;
#X obj 806 356 pack 0 0 0;
#X obj 884 242 t b f;
#X msg 884 266 200;
#X obj 884 290 -;
#X obj 845 324 + 118;
#X obj 889 325 + 45;
#X obj 712 98 cnv 5 1 1 empty \$0-X_rec o -3 0 0 14 -262144 -1 0;
#X obj 61 -76 t b b;
#X msg 850 411 \; \$1-simpSqrPos pos \$2 \$3;
#X obj 109 37 cnv 15 220 220 empty \$0-bg_rec empty 20 12 0 14 -166441
-1 0;
#X obj 119 46 xy 200 200 0;
#X text 140 357 Click and drag within the square to change pitch and
amplitude simultaneously;
#X obj 209 418 r reset;
#X obj 209 442 t b;
#X msg 209 466 100;
#X obj 266 414 loadbang;
#X connect 0 0 3 0;
#X connect 0 1 1 0;
#X connect 0 2 2 0;
#X connect 1 0 10 0;
#X connect 2 0 9 0;
#X connect 3 0 4 0;
#X connect 7 0 37 0;
#X connect 8 0 7 0;
#X connect 9 0 5 0;
#X connect 10 0 11 0;
#X connect 11 0 12 0;
#X connect 12 0 6 0;
#X connect 27 0 28 0;
#X connect 27 1 34 0;
#X connect 27 2 31 0;
#X connect 28 0 29 0;
#X connect 29 0 30 0;
#X connect 30 0 38 0;
#X connect 31 0 32 0;
#X connect 31 1 33 1;
#X connect 32 0 33 0;
#X connect 33 0 35 0;
#X connect 34 0 30 1;
#X connect 35 0 30 2;
#X connect 37 1 40 0;
#X connect 40 0 25 0;
#X connect 40 0 0 0;
#X connect 42 0 43 0;
#X connect 43 0 44 0;
#X connect 44 0 1 0;
#X connect 44 0 2 0;
#X connect 45 0 43 0;
#X coords 0 -1 1 1 610 390 2 10 10;
