#N canvas 579 238 1036 545 12;
#X text 130 382 Press & hold the SPACEBAR to trigger the note;
#X obj 83 22 cnv 15 450 60 empty empty empty 20 12 0 14 -233017 -66577
0;
#N canvas 495 80 773 350 guts 0;
#X obj 104 139 r \$1-note;
#X obj 104 186 line~;
#X obj 90 215 *~;
#X obj 56 294 throw~ \$1-outL;
#X obj 169 295 throw~ \$1-outR;
#X msg 104 162 \$1 25;
#N canvas 529 546 849 405 display 0;
#X obj 309 88 sel 0 1;
#X obj 309 64 > 0;
#X msg 280 124 color 1 0 22;
#X msg 378 123 color 1 13 22;
#X obj 310 38 r \$1-note;
#X obj 398 33 tgl 15 0 empty empty empty 17 7 0 10 -262144 -1 -1 0
1;
#X obj 142 251 s \$0-type_rec;
#X obj 257 249 s \$0-Fc_rec;
#X obj 363 250 s \$0-Q_rec;
#X connect 0 0 2 0;
#X connect 0 1 3 0;
#X connect 1 0 0 0;
#X connect 2 0 6 0;
#X connect 2 0 7 0;
#X connect 2 0 8 0;
#X connect 3 0 6 0;
#X connect 3 0 7 0;
#X connect 3 0 8 0;
#X connect 4 0 1 0;
#X connect 5 0 1 0;
#X restore 484 60 pd display;
#N canvas 969 192 512 300 load 0;
#X obj 214 9 r reset;
#X obj 31 91 s \$0-type_rec;
#X obj 138 89 s \$0-Fc_rec;
#X msg 141 64 2000;
#X obj 244 86 s \$0-Q_rec;
#X msg 243 62 15;
#X msg 31 67 2;
#X connect 0 0 6 0;
#X connect 0 0 3 0;
#X connect 0 0 5 0;
#X connect 3 0 2 0;
#X connect 5 0 4 0;
#X connect 6 0 1 0;
#X restore 322 59 pd load;
#N canvas 199 23 419 220 sampler 0;
#X obj 105 83 outlet~;
#N canvas 0 23 450 300 sampPlayer 0;
#X obj 29 38 r \$0-pbRate;
#X obj 29 62 phasor~;
#X obj 29 86 *~, f 12;
#X obj 29 110 +~ 1;
#X obj 29 134 tabread4~ \$0-sample;
#X obj 124 54 r \$0-sampSize;
#X obj 29 158 outlet~;
#N canvas 0 23 785 581 sampLoad 0;
#X obj 305 147 openpanel;
#X obj 305 126 bng 15 250 50 0 empty empty empty 17 7 0 10 -262144
-1 -1;
#X obj 305 169 pack s \$0;
#X msg 305 193 read -resize \$1 \$2-sample;
#X obj 305 217 soundfiler;
#X obj 465 49 loadbang;
#X obj 536 48 r reset;
#X obj 489 87 bng 15 250 50 0 empty empty empty 17 7 0 10 -262144 -1
-1;
#X obj 301 483 array define \$0-sample;
#X floatatom 305 241 10 0 0 0 - - -;
#X obj 305 264 / 44100;
#X obj 305 288 t b f;
#X msg 305 312 1;
#X obj 305 336 /;
#X floatatom 305 360 5 0 0 0 - - -;
#X obj 305 383 s \$0-pbRate;
#X obj 156 266 - 2;
#X obj 156 290 s \$0-sampSize;
#X msg 424 132 08_Gtr1.aif;
#X connect 0 0 2 0;
#X connect 1 0 0 0;
#X connect 2 0 3 0;
#X connect 3 0 4 0;
#X connect 4 0 9 0;
#X connect 5 0 7 0;
#X connect 6 0 7 0;
#X connect 7 0 18 0;
#X connect 9 0 10 0;
#X connect 9 0 16 0;
#X connect 10 0 11 0;
#X connect 11 0 12 0;
#X connect 11 1 13 1;
#X connect 12 0 13 0;
#X connect 13 0 14 0;
#X connect 14 0 15 0;
#X connect 16 0 17 0;
#X connect 18 0 2 0;
#X restore 272 29 pd sampLoad;
#X connect 0 0 1 0;
#X connect 1 0 2 0;
#X connect 2 0 3 0;
#X connect 3 0 4 0;
#X connect 4 0 6 0;
#X connect 5 0 2 1;
#X restore 105 36 pd sampPlayer;
#N canvas 0 23 734 557 wah 0;
#X obj 49 11 inlet~;
#X obj 185 518 outlet~;
#X obj 438 123 r \$0-Fc_snd;
#X obj 438 171 line~;
#X obj 418 311 r \$0-Q_snd;
#X obj 265 361 vcf~ 1, f 22;
#X floatatom 488 149 10 0 0 0 - - -;
#X msg 438 147 \$1 50;
#X obj 287 132 abs~;
#X obj 287 156 lop~ 15;
#X obj 287 178 *~ 5000;
#X obj 52 339 *~;
#X obj 60 287 r \$0-type_snd;
#X obj 60 311 == 0;
#X obj 142 124 *~;
#X obj 150 72 r \$0-type_snd;
#X obj 150 96 > 0;
#X obj 486 238 *~;
#X obj 494 186 r \$0-type_snd;
#X obj 494 210 == 1;
#X obj 341 252 *~;
#X obj 349 200 r \$0-type_snd;
#X obj 349 224 == 2;
#X connect 0 0 11 0;
#X connect 0 0 14 0;
#X connect 2 0 7 0;
#X connect 2 0 6 0;
#X connect 3 0 17 0;
#X connect 4 0 5 2;
#X connect 5 1 1 0;
#X connect 7 0 3 0;
#X connect 8 0 9 0;
#X connect 9 0 10 0;
#X connect 10 0 20 0;
#X connect 11 0 1 0;
#X connect 12 0 13 0;
#X connect 13 0 11 1;
#X connect 14 0 8 0;
#X connect 14 0 5 0;
#X connect 15 0 16 0;
#X connect 16 0 14 1;
#X connect 17 0 5 1;
#X connect 18 0 19 0;
#X connect 19 0 17 1;
#X connect 20 0 5 1;
#X connect 21 0 22 0;
#X connect 22 0 20 1;
#X restore 105 60 pd wah;
#X connect 1 0 2 0;
#X connect 2 0 0 0;
#X restore 77 17 pd sampler;
#X obj 90 108 *~ 0.7;
#X floatatom 214 172 5 0 0 0 - - -;
#X obj 500 134 tgl 15 0 empty empty empty 17 7 0 10 -262144 -1 -1 0
1;
#X obj 500 154 metro 50;
#X obj 500 178 snapshot~;
#X floatatom 500 202 5 0 0 0 - - -;
#X connect 0 0 5 0;
#X connect 0 0 10 0;
#X connect 1 0 2 1;
#X connect 2 0 3 0;
#X connect 2 0 4 0;
#X connect 5 0 1 0;
#X connect 8 0 9 0;
#X connect 9 0 2 0;
#X connect 11 0 12 0;
#X connect 12 0 13 0;
#X connect 13 0 14 0;
#X restore 723 58 pd guts;
#X obj 82 173 cnv 15 450 160 empty empty empty 20 12 0 14 -204786 -66577
0;
#X obj 200 260 vradio 10 1 1 3 \$0-type_snd \$0-type_rec clip_type
0 -8 0 10 -166441 -262144 -1 2;
#X text 210 255 bypass;
#X obj 84 87 cnv 15 450 60 empty empty empty 20 12 0 14 -233017 -66577
0;
#X text 102 24 A LPF with a resonant peak is applied onto a signal.
The filter’s cut-off frequency is modulated by an LFO or another
external control (e.g. foot pedal).;
#X text 103 89 Note: On auto-wha’s \, signals are fed to a low pass
filter with cut-off frequency controlled/altered by the input signal
level.;
#X text 211 266 manual;
#X text 211 277 auto;
#X obj 302 261 hsl 100 15 20 5000 0 0 \$0-Fc_snd \$0-Fc_rec Centre_Frequency
-2 -8 0 10 -166441 -262144 -1 3936 1;
#X obj 302 292 hsl 100 15 1 100 1 0 \$0-Q_snd \$0-Q_rec Q -2 -8 0 10
-166441 -262144 -1 5822 1;
#X text 99 173 This example allows you to choose between manually applying
wah (using the centre frequency fader) \, or auto-wah;
#X coords 0 -1 1 1 610 390 2 10 10;
