#N canvas 0 23 1036 545 12;
#X obj 90 140 vsl 15 128 200 1000 1 1 \$0-freq_snd \$0-freq_rec frequency_(Hz)
0 -9 0 10 -166441 -262144 -1 0 1;
#X text 189 183 Press & hold the SPACEBAR to trigger the note;
#N canvas 396 35 1052 576 synth 0;
#X obj 88 67 r \$0-freq_snd;
#X obj 153 107 r \$1-note;
#X obj 153 154 line~;
#X obj 90 215 *~;
#X obj 56 294 throw~ \$1-outL;
#X obj 169 295 throw~ \$1-outR;
#X obj 88 107 osc~ 200;
#X msg 153 130 \$1 25;
#X obj 481 119 sel 0 1;
#X obj 481 95 > 0;
#X msg 444 160 color 1 0 22;
#X msg 542 159 color 1 13 22;
#X obj 482 69 r \$1-note;
#X obj 498 201 s \$0-freq_rec;
#X obj 701 65 r \$0-freq_snd;
#X obj 701 89 change;
#X obj 701 113 t b f;
#X msg 701 137 1;
#X obj 701 161 /;
#X obj 701 185 s \$0-period_rec;
#X obj 844 61 r \$0-period_rec;
#X obj 844 85 change;
#X obj 844 109 t f f;
#X obj 910 125 t b f;
#X msg 910 149 1;
#X obj 910 173 /;
#X obj 910 197 s \$0-freq_rec;
#X obj 780 152 s \$0-periodms_rec;
#X obj 780 130 * 1000;
#X obj 579 125 s \$0-freqSym_rec;
#X msg 579 101 set \$1Hz;
#X obj 958 175 r reset;
#X floatatom 869 234 10 0 0 0 Period_(s) #0-period_rec #0-period_snd
;
#X obj 546 317 s \$0-sos_rec;
#X msg 546 287 344;
#X obj 481 483 s \$0-wavelength_rec;
#X obj 403 355 r \$0-sos_snd;
#X obj 512 353 r \$0-freq_snd;
#X obj 512 377 t b f;
#X obj 432 418 / 1;
#X msg 432 442 set \$1m;
#X obj 546 266 r reset;
#X connect 0 0 6 0;
#X connect 1 0 7 0;
#X connect 2 0 3 1;
#X connect 3 0 4 0;
#X connect 3 0 5 0;
#X connect 6 0 3 0;
#X connect 7 0 2 0;
#X connect 8 0 10 0;
#X connect 8 1 11 0;
#X connect 9 0 8 0;
#X connect 10 0 13 0;
#X connect 11 0 13 0;
#X connect 12 0 9 0;
#X connect 14 0 15 0;
#X connect 14 0 30 0;
#X connect 15 0 16 0;
#X connect 16 0 17 0;
#X connect 16 1 18 1;
#X connect 17 0 18 0;
#X connect 18 0 19 0;
#X connect 20 0 21 0;
#X connect 21 0 22 0;
#X connect 22 0 28 0;
#X connect 22 1 23 0;
#X connect 23 0 24 0;
#X connect 23 1 25 1;
#X connect 24 0 25 0;
#X connect 25 0 26 0;
#X connect 28 0 27 0;
#X connect 30 0 29 0;
#X connect 31 0 26 0;
#X connect 34 0 33 0;
#X connect 36 0 39 0;
#X connect 37 0 38 0;
#X connect 38 0 39 0;
#X connect 38 1 39 1;
#X connect 39 0 40 0;
#X connect 40 0 35 0;
#X connect 41 0 34 0;
#X restore 675 30 pd synth;
#X text 122 200 <------- change this slider and notice how the sound
changes;
#X floatatom 157 278 5 0 0 0 Period_(ms) #0-periodms_rec #0-periodms_snd
;
#X text 112 18 Wavelength (λ) is the distance between any two consecutive
\, corresponding points along a waveform;
#X text 112 49 Note how the distance between each peak in the display
below changes as you change the frequency;
#X symbolatom 107 253 10 0 0 0 - #0-freqSym_rec -;
#X floatatom 382 315 5 0 0 0 Speed_of_Sound_(m/s) #0-sos_rec #0-sos_snd
;
#X text 225 87 c = f x λ <---> λ = c/f;
#X obj 240 335 cnv 15 145 17 empty empty empty 20 12 0 14 -261234 -66577
0;
#X symbolatom 314 335 10 0 0 0 Wavelength #0-wavelength_rec -;
#X coords 0 -1 1 1 610 390 2 10 10;
