#N canvas 0 23 1280 751 12;
#X obj 118 51 expr~ ($v1 * 0.5) + 0.5;
#X obj 286 27 expr pow(2 \, $f1) - 1;
#X text 23 72 scale 0 --> 1;
#X text 2 96 scale 0 --> BD-1;
#X obj 118 199 *~;
#X obj 118 223 dac~;
#X floatatom 195 197 5 0 0 0 - - -;
#X msg 195 220 \$1 5;
#X obj 195 244 line~;
#N canvas 0 22 450 278 (subpatch) 0;
#X array \$0-sample 205511 float 2;
#X coords 0 1 205511 -1 200 140 1;
#X restore 191 332 graph;
#X obj 565 316 openpanel;
#X obj 565 295 bng 15 250 50 0 empty empty empty 17 7 0 10 -262144
-1 -1;
#X obj 565 338 pack s \$0;
#X msg 565 362 read -resize \$1 \$2-sample;
#X obj 565 386 soundfiler;
#X msg 684 301 FiftyWays.wav;
#X obj 725 218 loadbang;
#X obj 796 217 r reset;
#X msg 793 285 16;
#X obj 118 27 tabplay~ \$0-sample;
#X obj 448 139 hsl 128 15 2 16 0 0 \$0-bd_snd \$0-bd_rec empty -2 -8
0 10 -262144 -1 -1 907 1;
#X floatatom 445 159 5 2 16 1 Bit_Depth - -;
#X obj 394 116 change;
#X obj 793 309 s \$0-bd_rec;
#X obj 286 3 r \$0-bd_snd;
#X obj 749 256 bng 15 250 50 0 empty empty empty 17 7 0 10 -262144
-1 -1;
#X obj 118 95 expr~ int($v1*$v2);
#X obj 118 119 expr~ (($v1 / $v2)*2) - 1;
#X msg 286 51 \$1 5;
#X obj 286 75 line~;
#X obj 445 116 bng 15 250 50 0 \$0-play_snd empty Play_Sample 17 7
0 10 -262144 -1 -1;
#X obj 119 3 r \$0-play_snd;
#X connect 0 0 26 0;
#X connect 1 0 28 0;
#X connect 4 0 5 0;
#X connect 4 0 5 1;
#X connect 6 0 7 0;
#X connect 7 0 8 0;
#X connect 8 0 4 1;
#X connect 10 0 12 0;
#X connect 11 0 10 0;
#X connect 12 0 13 0;
#X connect 13 0 14 0;
#X connect 15 0 12 0;
#X connect 16 0 25 0;
#X connect 17 0 25 0;
#X connect 18 0 23 0;
#X connect 19 0 0 0;
#X connect 20 0 21 0;
#X connect 21 0 22 0;
#X connect 22 0 20 0;
#X connect 24 0 1 0;
#X connect 25 0 18 0;
#X connect 25 0 15 0;
#X connect 26 0 27 0;
#X connect 27 0 4 0;
#X connect 28 0 29 0;
#X connect 29 0 26 1;
#X connect 29 0 27 1;
#X connect 31 0 19 0;
