#N canvas 0 23 1280 751 12;
#X obj 119 398 *~;
#X obj 119 422 dac~;
#X floatatom 196 398 5 0 0 0 - - -;
#X msg 196 421 \$1 5;
#X obj 196 445 line~;
#N canvas 0 22 450 278 (subpatch) 0;
#X array \$0-sample 205511 float 2;
#X coords 0 1 205511 -1 200 140 1;
#X restore 898 64 graph;
#X obj 871 335 openpanel;
#X obj 871 315 bng 15 250 50 0 empty empty empty 17 7 0 10 -262144
-1 -1;
#X obj 871 359 pack s \$0;
#X msg 871 383 read -resize \$1 \$2-sample;
#X obj 871 407 soundfiler;
#X msg 990 315 FiftyWays.wav;
#X obj 1031 243 loadbang;
#X obj 1102 243 r reset;
#X obj 120 63 tabplay~ \$0-sample;
#X obj 1055 264 bng 15 250 50 0 empty empty empty 17 7 0 10 -262144
-1 -1;
#X obj 445 116 bng 15 250 50 0 \$0-play_snd empty Play_Sample 17 7
0 10 -262144 -1 -1;
#X obj 118 3 r \$0-play_snd;
#X obj 1097 339 s \$0-sr_rec;
#X msg 1099 315 44100;
#X obj 121 187 *~;
#X obj 284 112 *~ 1;
#X text 327 114 input;
#X obj 670 147 tgl 15 0 empty empty empty 17 7 0 10 -262144 -1 -1 1
1;
#X obj 670 167 metro 50;
#X obj 670 191 snapshot~;
#X floatatom 670 215 5 0 0 0 - - -;
#X floatatom 906 476 5 0 0 0 threshold #0-threshold_rec #0-threshold_snd
;
#X obj 906 499 r \$0-threshold_snd;
#X floatatom 904 526 5 0 0 0 ratio #0-ratio_rec #0-ratio_snd;
#X obj 903 549 r \$0-ratio_snd;
#N canvas 0 23 460 656 rms 0;
#X obj 37 37 inlet~;
#X obj 39 64 env~;
#X obj 39 88 dbtorms~;
#X obj 39 171 -~;
#X obj 96 142 r \$0-threshold_snd, f 12;
#X msg 96 194 \$1 5;
#X obj 96 218 line~;
#X msg 96 345 \$1 5;
#X obj 96 369 line~;
#X obj 39 275 *~;
#X obj 96 246 r \$0-ratio_snd;
#X obj 96 270 t b f;
#X msg 96 294 1;
#X obj 96 318 /;
#X obj 92 410 r \$0-threshold_snd, f 12;
#X msg 92 462 \$1 5;
#X obj 92 486 line~;
#X obj 39 439 +~;
#X obj 40 567 /~, f 28;
#X obj 238 239 +~ 0;
#X obj 40 591 outlet~;
#X connect 0 0 1 0;
#X connect 1 0 2 0;
#X connect 2 0 3 0;
#X connect 2 0 19 0;
#X connect 3 0 9 0;
#X connect 4 0 5 0;
#X connect 5 0 6 0;
#X connect 6 0 3 1;
#X connect 7 0 8 0;
#X connect 8 0 9 1;
#X connect 9 0 17 0;
#X connect 10 0 11 0;
#X connect 11 0 12 0;
#X connect 11 1 13 1;
#X connect 12 0 13 0;
#X connect 13 0 7 0;
#X connect 14 0 15 0;
#X connect 15 0 16 0;
#X connect 16 0 17 1;
#X connect 17 0 18 0;
#X connect 18 0 20 0;
#X connect 19 0 18 1;
#X restore 284 136 pd rms;
#X obj 284 202 clip~ 0 1;
#X obj 284 226 lop~, f 13;
#X floatatom 903 581 5 0 0 0 response_time #0-response_rec #0-response_snd
;
#X obj 905 610 r \$0-response_snd;
#X obj 430 214 r \$0-response_snd;
#X obj 430 238 t b f, f 6;
#X msg 430 262 1000;
#X obj 430 286 /, f 6;
#X connect 0 0 1 0;
#X connect 0 0 1 1;
#X connect 2 0 3 0;
#X connect 3 0 4 0;
#X connect 4 0 0 1;
#X connect 6 0 8 0;
#X connect 7 0 6 0;
#X connect 8 0 9 0;
#X connect 9 0 10 0;
#X connect 11 0 8 0;
#X connect 12 0 15 0;
#X connect 13 0 15 0;
#X connect 14 0 20 0;
#X connect 14 0 21 0;
#X connect 15 0 11 0;
#X connect 15 0 19 0;
#X connect 17 0 14 0;
#X connect 19 0 18 0;
#X connect 20 0 0 0;
#X connect 21 0 31 0;
#X connect 23 0 24 0;
#X connect 24 0 25 0;
#X connect 25 0 26 0;
#X connect 31 0 32 0;
#X connect 32 0 33 0;
#X connect 36 0 37 0;
#X connect 37 0 38 0;
#X connect 37 1 39 1;
#X connect 38 0 39 0;
#X connect 39 0 33 1;
